<svg width="33" height="33" viewBox="0 0 33 33" fill="none" xmlns="http://www.w3.org/2000/svg">
<g clip-path="url(#clip0_1_794)">
<g clip-path="url(#clip1_1_794)">
<g clip-path="url(#clip2_1_794)">
<mask id="mask0_1_794" style="mask-type:luminance" maskUnits="userSpaceOnUse" x="0" y="1" width="33" height="32">
<path d="M32.6599 1.64111H0.659912V32.5265H32.6599V1.64111Z" fill="white"/>
</mask>
<g mask="url(#mask0_1_794)">
<path fill-rule="evenodd" clip-rule="evenodd" d="M17.9242 1.6817C17.8805 1.69871 17.8048 1.78726 17.7558 1.87853C17.6557 2.06553 17.6523 2.0449 18.4777 6.28622C18.9639 8.78408 19.664 12.8676 19.8227 14.1306C19.8792 14.5794 19.9255 15.4013 19.9263 15.9681C19.9288 17.6779 19.6568 18.5517 18.865 19.3772C18.6455 19.606 18.2775 19.9363 18.0472 20.1112C17.5457 20.4921 17.5371 20.5027 17.5358 20.7382C17.5348 20.9495 17.7528 21.1861 17.9486 21.1861C18.2217 21.1861 19.1202 20.4957 19.706 19.8357C20.8507 18.5461 21.1287 16.642 20.6537 13.3441C20.4283 11.7792 19.8003 8.17686 19.3549 5.89412C19.1154 4.66654 18.8462 3.26855 18.7567 2.78748C18.6168 2.03555 18.5718 1.89373 18.4359 1.77707C18.286 1.64828 18.0997 1.61353 17.9242 1.6817ZM30.645 1.70607C30.5853 1.73967 30.5077 1.81893 30.4726 1.88221C30.3659 2.07476 30.0002 6.2952 29.7827 9.84528C29.6719 11.6537 29.6328 16.5135 29.7172 17.9889C29.8791 20.82 30.1615 22.6104 30.721 24.3527C30.9936 25.2017 31.0974 25.8516 31.0974 26.7096C31.0974 28.2077 30.7124 29.1633 29.7249 30.1162C28.6618 31.142 27.289 31.687 25.9748 31.6048C25.2803 31.5614 24.6815 31.4105 23.275 30.9245C21.4795 30.3041 20.5783 30.107 19.0213 29.994C18.4322 29.9512 17.8455 29.9512 17.1463 29.994C15.5456 30.0918 14.6389 30.238 11.7224 30.8686C8.11703 31.6481 6.76635 31.7674 5.21885 31.4429C3.95722 31.1784 2.76285 30.469 2.38191 29.758C2.10685 29.2447 2.15735 28.6507 2.50985 28.2533C2.86622 27.8514 3.35491 27.6622 4.40991 27.5175C8.05635 27.0176 10.9536 25.8435 15.1285 23.1741C15.8968 22.6829 16.5557 22.2265 16.5926 22.1597C16.6296 22.0931 16.6599 21.9812 16.6599 21.9111C16.6599 21.7437 16.3902 21.4877 16.2138 21.4877C16.1372 21.4877 15.4398 21.8912 14.6641 22.3844C12.9953 23.4455 12.2264 23.8944 11.1287 24.4484C8.82672 25.6102 6.68929 26.2918 4.33053 26.6162C2.9696 26.8033 2.41116 27.0271 1.85666 27.6078C1.39635 28.0897 1.31616 28.3049 1.31616 29.0582C1.31616 29.7139 1.31904 29.727 1.5596 30.1616C1.83185 30.6534 2.40966 31.214 2.99203 31.5514C4.29328 32.3052 5.88185 32.6187 7.66866 32.4742C8.82753 32.3805 9.6171 32.245 12.0974 31.7141C14.4512 31.2103 14.9469 31.1181 15.9724 30.9942C17.1235 30.8552 18.183 30.8218 19.0661 30.8966C20.492 31.0175 21.2274 31.1876 23.2401 31.8623C24.8853 32.4138 26.1798 32.6199 27.0648 32.4711C28.8631 32.1689 30.649 30.9083 31.4478 29.3773C31.8461 28.6139 31.9853 28.026 32.0193 26.9648C32.0555 25.8366 31.9607 25.1798 31.5902 23.9911C31.1558 22.5979 30.9024 21.1843 30.7089 19.0748C30.6005 17.8936 30.6013 11.7278 30.7101 9.93577C30.8296 7.96634 31.0186 5.50165 31.1925 3.64244C31.3009 2.48272 31.3278 1.95996 31.2831 1.87937C31.1628 1.66239 30.866 1.5818 30.645 1.70607ZM10.4933 3.95865C7.78497 4.45686 5.70522 6.46447 5.19191 9.07616C5.07085 9.69218 5.07085 10.7826 5.19191 11.3986C5.94141 15.2121 10.0073 17.4924 13.8161 16.2353L14.1911 16.1115L15.4023 16.5978C16.8167 17.1657 16.9975 17.1926 17.3187 16.8826C17.4336 16.7717 17.5465 16.6079 17.5698 16.5186C17.5955 16.4196 17.5152 15.8584 17.3642 15.0825L17.1163 13.8087L17.358 13.4105C17.9318 12.4645 18.2203 11.3988 18.2216 10.2196C18.2223 9.512 18.2153 9.47104 18.069 9.32982C17.8735 9.14107 17.6338 9.14107 17.4383 9.32982C17.2931 9.46995 17.2849 9.51513 17.2849 10.1769C17.2849 11.2901 17.0347 12.1763 16.461 13.095C16.329 13.3064 16.2052 13.54 16.1859 13.6142C16.1666 13.6884 16.2516 14.2594 16.3747 14.8832C16.4978 15.5069 16.5853 16.03 16.5693 16.0456C16.5532 16.0611 16.0522 15.8804 15.4561 15.6439C14.86 15.4075 14.2922 15.2141 14.1944 15.2141C14.0966 15.2141 13.7564 15.2945 13.4383 15.3929C12.6088 15.6493 11.8938 15.7258 11.1021 15.6427C8.75816 15.3966 6.86366 13.8637 6.21085 11.6852C6.08654 11.2704 6.06622 11.067 6.06622 10.2374C6.06622 9.17925 6.15379 8.74668 6.53022 7.94546C7.20335 6.51261 8.55828 5.40025 10.1708 4.95682C10.8338 4.77446 11.9646 4.73362 12.6896 4.86579C14.2289 5.14647 15.5596 6.01368 16.401 7.28426C16.909 8.05163 16.8934 8.03559 17.1316 8.03559C17.3901 8.03559 17.5974 7.85999 17.5974 7.64107C17.5974 7.28559 16.9301 6.32012 16.2371 5.67291C15.3861 4.87828 14.432 4.35944 13.2978 4.07459C12.5432 3.88506 11.196 3.82938 10.4933 3.95865ZM12.522 6.96485C12.4295 7.03519 11.957 7.64982 10.728 9.29857C10.3046 9.86663 10.2224 10.0146 10.2224 10.2093C10.2224 10.5884 10.4092 10.7395 11.0037 10.8413C11.2786 10.8884 11.5793 10.9279 11.6718 10.929C11.7643 10.9302 11.8553 10.9551 11.8741 10.9844C11.8928 11.0137 11.5014 11.577 11.0041 12.2361C10.2854 13.189 10.0999 13.4747 10.0988 13.6306C10.0962 14.0051 10.5447 14.2079 10.8321 13.9624C10.9371 13.8727 12.5113 11.8074 12.9535 11.1791C13.143 10.9098 13.1443 10.5682 12.9568 10.358C12.8365 10.2231 12.7198 10.1856 12.1489 10.0977C11.782 10.0412 11.4658 9.97968 11.4464 9.96092C11.427 9.94222 11.8186 9.38622 12.3168 8.72538C13.2886 7.43604 13.3649 7.26828 13.0974 7.01009C12.9565 6.87407 12.6711 6.85163 12.522 6.96485ZM13.2363 17.1475C12.47 17.2935 12.423 17.3103 12.309 17.4783C12.1686 17.685 12.2473 17.9671 12.4773 18.0818C12.6432 18.1647 12.7314 18.1598 13.4746 18.0277C13.9958 17.9349 14.3341 17.844 14.4124 17.7756C14.5751 17.6335 14.5738 17.3026 14.4099 17.1444C14.2565 16.9964 14.0263 16.997 13.2363 17.1475ZM14.612 18.1884C14.5341 18.2309 14.2438 18.5875 13.967 18.9808C13.5561 19.5645 13.4706 19.7249 13.5019 19.8529C13.5779 20.1638 13.9832 20.3264 14.2264 20.1436C14.4288 19.9915 15.2849 18.723 15.2849 18.5752C15.2849 18.2573 14.8957 18.0335 14.612 18.1884ZM15.8133 18.5593C15.6276 18.7385 15.6275 18.7935 15.8108 19.703C15.9708 20.4975 16.0414 20.6007 16.4037 20.5705C16.5471 20.5585 16.6562 20.5009 16.7389 20.3934C16.8611 20.2347 16.861 20.2313 16.7161 19.4584C16.6031 18.8555 16.5396 18.6524 16.4307 18.5469C16.2478 18.3697 16.0047 18.3746 15.8133 18.5593ZM26.43 19.3261C26.164 19.4528 26.1378 19.6629 26.3148 20.2522C26.6133 21.2464 26.5882 22.2774 26.2488 22.9699C26.0643 23.3464 25.577 23.8021 25.1735 23.9756C24.771 24.1487 24.2058 24.143 23.8187 23.9621C23.6601 23.888 23.3747 23.6901 23.1843 23.5222C22.9343 23.3016 22.7878 23.217 22.6562 23.217C22.392 23.217 22.2224 23.391 22.2224 23.6621C22.2224 23.8612 22.268 23.9284 22.6118 24.2355C23.2733 24.8267 24.1214 25.1048 24.8949 24.9843C25.6491 24.8668 26.4875 24.3226 26.9139 23.6737C27.3503 23.0097 27.5507 21.909 27.4146 20.9228C27.334 20.338 27.0797 19.4874 26.956 19.3883C26.8289 19.2864 26.576 19.2566 26.43 19.3261Z" fill="white"/>
</g>
</g>
</g>
</g>
<defs>
<clipPath id="clip0_1_794">
<rect width="32" height="32" fill="white" transform="translate(0.659912 0.779785)"/>
</clipPath>
<clipPath id="clip1_1_794">
<rect width="32" height="32" fill="white" transform="translate(0.659912 0.779785)"/>
</clipPath>
<clipPath id="clip2_1_794">
<rect width="32" height="32" fill="white" transform="translate(0.659912 0.779785)"/>
</clipPath>
</defs>
</svg>
