<svg width="34" height="35" viewBox="0 0 34 35" fill="none" xmlns="http://www.w3.org/2000/svg">
<g clip-path="url(#clip0_1_197)">
<g clip-path="url(#clip1_1_197)">
<path fill-rule="evenodd" clip-rule="evenodd" d="M11.0921 5.71559C10.6342 5.93002 10.288 6.45241 10.2868 6.93069C10.2859 7.24419 10.5595 7.92245 10.8574 8.34517C11.2845 8.9513 12.2619 9.97692 12.4598 10.0267C12.5959 10.0608 12.69 9.9986 13.0712 9.6231C14.4916 8.22383 15.0122 7.09002 14.5929 6.3085C14.5074 6.14883 14.3137 5.93111 14.1625 5.82468C13.923 5.65599 13.832 5.63115 13.453 5.63115C13.0924 5.63115 12.9748 5.65985 12.7652 5.79894L12.5123 5.96673L12.2664 5.80391C11.9388 5.58715 11.4457 5.55006 11.0921 5.71559ZM11.2093 6.46428C10.9493 6.688 10.9625 7.10653 11.2464 7.63919C11.465 8.04933 12.3516 9.10005 12.5081 9.1345C12.6396 9.1634 13.6136 8.01843 13.837 7.57223C14.0909 7.06518 14.0916 6.74928 13.8393 6.49705C13.7106 6.36835 13.5862 6.3085 13.4473 6.3085C13.2476 6.3085 13.191 6.35365 12.7396 6.87294C12.5242 7.1206 12.4138 7.07074 12.0092 6.54337C11.7856 6.25179 11.49 6.22263 11.2093 6.46428ZM22.4323 7.30729C21.9314 7.44734 21.2492 7.81168 20.8219 8.16726C19.6507 9.14199 19.3787 10.5608 20.0899 11.9853C20.1873 12.1805 20.3313 12.5412 20.4098 12.7871C20.5717 13.2943 20.7365 13.6388 21.0037 14.0289C21.1299 14.2133 21.1884 14.3789 21.1884 14.5522V14.8058L20.6973 14.8504C19.6522 14.945 18.751 15.3704 18.1127 16.0704C17.6831 16.5415 17.4614 17.0162 17.3777 17.6444C17.2765 18.4042 17.3253 21.9992 17.4386 22.1357C17.5197 22.2333 17.9962 22.2422 23.0863 22.2422C27.3242 22.2422 28.664 22.2239 28.7231 22.1648C28.7804 22.1075 28.8005 21.4815 28.8005 19.7482C28.8005 17.5143 28.7942 17.3921 28.6619 17.0356C28.2119 15.8226 26.9978 14.9874 25.4855 14.8504L24.9944 14.8058V14.5693C24.9944 14.4153 25.0526 14.255 25.1608 14.1105C25.4051 13.7844 25.6712 13.237 25.8201 12.7542C25.8922 12.5207 26.0232 12.2235 26.1113 12.0937C26.3571 11.7315 26.4361 11.2892 26.3946 10.5083C26.3465 9.60226 26.1605 8.95878 25.8191 8.51599C25.479 8.07514 25.0032 7.6955 24.4783 7.44637C24.1096 7.27129 23.9811 7.24522 23.4139 7.2302C22.9958 7.21917 22.6505 7.24632 22.4323 7.30729ZM6.25457 7.49598C5.5051 7.82813 5.27596 8.66694 5.69185 9.55568C5.93576 10.0769 6.28585 10.54 7.0048 11.2924C7.33154 11.6343 7.5957 11.8574 7.67376 11.8574C7.83994 11.8575 9.00638 10.6636 9.36532 10.126C9.87938 9.35622 10.0206 8.67823 9.77806 8.14435C9.46059 7.4454 8.55224 7.1913 7.90425 7.62016C7.73621 7.73137 7.6328 7.76575 7.60442 7.71982C7.52139 7.58552 7.02661 7.40799 6.73838 7.40909C6.57872 7.40973 6.36101 7.44882 6.25457 7.49598ZM22.3707 8.07294C21.3114 8.47458 20.531 9.30016 20.4337 10.1218C20.396 10.4401 20.3969 10.4423 20.55 10.3806C20.635 10.3463 21.0087 10.2845 21.3807 10.2432C22.2933 10.1417 23.3827 9.85804 23.943 9.57588C24.1967 9.44814 24.4226 9.3139 24.4451 9.27752C24.5058 9.17934 24.8448 9.19747 25.0634 9.31048C25.1688 9.36499 25.3415 9.52898 25.4473 9.67496C25.6751 9.9895 25.6758 9.98737 25.5112 9.45498C25.4025 9.10283 25.3219 8.98136 24.9791 8.65404C24.4027 8.10359 24.0701 7.95734 23.3494 7.93774C22.8714 7.9247 22.6985 7.94857 22.3707 8.07294ZM6.39726 8.24453C6.06336 8.50722 6.11117 8.98413 6.53756 9.64387C6.79334 10.0396 7.61248 10.9531 7.71157 10.9531C7.74143 10.9531 7.99192 10.6913 8.26815 10.3711C9.1574 9.34055 9.40047 8.66565 9.01967 8.28479C8.77061 8.03572 8.41884 8.04785 8.19557 8.31324C8.10371 8.42239 8.02856 8.53786 8.02856 8.56979C8.02856 8.60172 7.9574 8.67449 7.87045 8.73145C7.66499 8.86608 7.47346 8.80267 7.34709 8.5583C7.11337 8.10629 6.73277 7.98063 6.39726 8.24453ZM24.3815 10.151C23.8955 10.4427 22.8094 10.7549 21.7015 10.9214C21.3343 10.9765 21.0258 11.0296 21.0159 11.0395C21.0061 11.0494 20.9793 11.2591 20.9564 11.5055C20.8568 12.5775 21.5219 13.9154 22.3629 14.3344C22.7584 14.5315 23.3534 14.5603 23.7353 14.4007C24.5438 14.0629 25.2539 12.8283 25.2514 11.765C25.2493 10.947 24.9807 10.0365 24.7329 10.0071C24.6816 10.0011 24.5235 10.0658 24.3815 10.151ZM12.8339 10.8114C12.3757 11.0267 12.0297 11.5487 12.0285 12.0269C12.0277 12.3436 12.3017 13.0193 12.6076 13.455C13.0698 14.1131 14.0727 15.1462 14.2494 15.1462C14.3434 15.1462 14.5874 14.9447 14.9725 14.5495C16.0712 13.4217 16.4447 12.7787 16.4461 12.0128C16.4468 11.6197 16.4219 11.5185 16.2655 11.2822C15.8704 10.6852 14.9142 10.5145 14.4433 10.9567L14.2988 11.0925L14.0414 10.9221C13.6933 10.6918 13.1874 10.6454 12.8339 10.8114ZM12.9509 11.5605C12.6916 11.7837 12.7043 12.2028 12.9867 12.7326C13.222 13.1739 14.2039 14.326 14.2962 14.269C14.3294 14.2485 14.5887 13.9657 14.8722 13.6407C15.745 12.6405 15.9721 11.9843 15.5811 11.5932C15.2416 11.2537 14.9225 11.3597 14.5248 11.944C14.3772 12.161 14.1854 12.1608 14.0069 11.9436C13.5174 11.3479 13.2927 11.2664 12.9509 11.5605ZM6.8165 13.2159C6.50319 13.3113 6.13142 13.7153 6.03272 14.0676C5.85984 14.6853 6.11239 15.3894 6.82469 16.2751C7.34928 16.9275 8.04585 17.5973 8.20035 17.5981C8.3682 17.5989 9.4924 16.4196 9.8889 15.8268C10.5873 14.7826 10.5695 13.8877 9.83994 13.3725C9.60155 13.204 9.51046 13.1792 9.13141 13.179C8.77061 13.1788 8.65333 13.2073 8.44335 13.3465L8.19029 13.5142L7.94425 13.3514C7.66821 13.1688 7.16853 13.1087 6.8165 13.2159ZM6.86243 14.0446C6.57162 14.3354 6.62091 14.7295 7.02848 15.3729C7.27367 15.7599 8.09681 16.6944 8.19254 16.6944C8.22983 16.6944 8.43548 16.4985 8.64952 16.259C9.66425 15.1239 9.92668 14.4541 9.51724 14.0446C9.25126 13.7786 8.93246 13.7826 8.72693 14.0545C8.22732 14.7154 8.16784 14.7175 7.68711 14.091C7.44953 13.7811 7.14311 13.7639 6.86243 14.0446ZM21.898 14.9833C21.898 15.1286 23.0694 16.9042 23.1251 16.8434C23.2474 16.7098 24.2848 15.0671 24.2848 15.0069C24.2848 14.9676 24.2371 14.9583 24.1719 14.9849C23.6705 15.1892 23.4699 15.2246 22.9734 15.1974C22.6012 15.177 22.3657 15.1269 22.1721 15.027C21.9465 14.9106 21.898 14.9028 21.898 14.9833ZM20.253 15.6281C19.3426 15.8269 18.6262 16.3475 18.2714 17.068L18.0597 17.4977L18.0387 19.5151L18.0177 21.5326H18.5709H19.1241V20.0568C19.1241 18.4467 19.1333 18.4064 19.4896 18.4476C19.7982 18.4834 19.8317 18.6506 19.8327 20.1618L19.8337 21.5326H20.6401C21.0835 21.5326 21.4464 21.5139 21.4464 21.4912C21.4464 21.4685 21.2007 20.7423 20.9005 19.8777C20.5838 18.966 20.3716 18.2583 20.3951 18.1934C20.4174 18.1317 20.5229 18.0065 20.6297 17.9152L20.8238 17.7489L20.5223 17.1821C20.3564 16.8704 20.2207 16.5508 20.2207 16.4718C20.2207 16.393 20.3369 16.1662 20.4788 15.9681C20.6207 15.7698 20.7368 15.5909 20.7368 15.5704C20.7368 15.5238 20.7229 15.5255 20.253 15.6281ZM25.6702 15.9323C25.8307 16.1527 25.9621 16.3911 25.9621 16.4619C25.9621 16.5327 25.828 16.8502 25.6641 17.1675L25.3663 17.7442L25.5674 17.9322C25.8726 18.2174 25.8861 18.1315 25.2499 19.9555C24.9674 20.7653 24.7364 21.4513 24.7364 21.4801C24.7364 21.509 25.0992 21.5326 25.5427 21.5326H26.3491V20.1278C26.3491 18.575 26.3801 18.4362 26.727 18.4362C27.0494 18.4362 27.0587 18.4817 27.0587 20.0618V21.5326H27.6126H28.1664L28.1448 19.5167C28.1231 17.5012 28.1231 17.5008 27.9553 17.143C27.5632 16.307 26.7203 15.7316 25.6541 15.5724L25.3785 15.5313L25.6702 15.9323ZM12.6497 15.9983C12.2969 16.0937 11.8659 16.5276 11.7707 16.8833C11.5624 17.6624 11.99 18.52 13.2123 19.7747C13.6473 20.2212 13.8352 20.3714 13.9591 20.3714C14.2561 20.3714 15.5921 18.8561 15.936 18.1293C16.2532 17.4587 16.2112 16.8435 15.8177 16.3953C15.3742 15.89 14.6556 15.7995 14.1364 16.1833C13.9842 16.2958 13.9213 16.3107 13.8404 16.2532C13.4526 15.9772 13.0479 15.8906 12.6497 15.9983ZM21.1233 16.2762L20.9696 16.5247L21.3169 17.183C21.6561 17.8262 21.6616 17.8452 21.5562 18.006C21.4969 18.0966 21.3791 18.2229 21.2942 18.2869L21.1402 18.403L21.6722 19.9518L22.2042 21.5003L22.4059 21.5205C22.5168 21.5317 22.6076 21.5107 22.6076 21.4741C22.6076 21.367 21.3883 16.2876 21.3299 16.1514C21.2826 16.0412 21.26 16.0549 21.1233 16.2762ZM24.838 16.1199C24.7802 16.2882 23.5753 21.3818 23.5753 21.4576C23.5753 21.4989 23.6584 21.5326 23.7599 21.5326C23.9746 21.5326 23.927 21.6378 24.5932 19.6941L25.0354 18.4039L24.7892 18.1868C24.6536 18.0674 24.5428 17.9248 24.5428 17.87C24.5428 17.8153 24.688 17.5012 24.8654 17.1721C25.0428 16.843 25.1879 16.5485 25.1879 16.5176C25.1879 16.4867 25.1162 16.3642 25.0285 16.2453C24.9183 16.0959 24.8595 16.0572 24.838 16.1199ZM12.7684 16.7185C12.5697 16.8066 12.4152 17.0512 12.4152 17.2773C12.4152 17.6828 12.8286 18.3617 13.5496 19.1406L13.9174 19.5379L14.0783 19.3902C14.4543 19.045 15.0737 18.2596 15.2533 17.9003C15.5582 17.2901 15.5022 16.8938 15.0865 16.7201C14.7692 16.5875 14.5788 16.6629 14.3196 17.0237C14.0541 17.3931 13.8463 17.4403 13.66 17.1736C13.3047 16.665 13.1116 16.5664 12.7684 16.7185ZM22.2996 17.0976C22.3152 17.142 22.4988 17.8995 22.7077 18.781C22.9164 19.6626 23.0948 20.3593 23.1038 20.3293C23.1792 20.0813 23.882 17.0449 23.8675 17.0301C23.8572 17.0195 23.73 17.1987 23.5851 17.4282C23.1815 18.0672 22.9764 18.0623 22.5699 17.4037C22.3452 17.0397 22.2355 16.9155 22.2996 17.0976ZM4.35155 20.3714C4.22505 20.4979 4.22253 20.5864 4.22253 24.877C4.22253 29.0351 4.2284 29.259 4.34052 29.3605C4.43942 29.4499 4.61714 29.4672 5.43924 29.4672C6.54434 29.4672 6.79935 29.4037 6.98177 29.0832C7.08634 28.8994 7.11698 28.8874 7.48024 28.8867C8.24376 28.8851 8.56515 28.687 8.70642 28.1305L8.78467 27.8222L9.4226 27.6788C10.1766 27.5094 10.9437 27.4918 11.481 27.6317C11.6918 27.6866 13.3017 28.3155 15.0586 29.0294C16.8157 29.7432 18.4274 30.3824 18.6403 30.4498C19.2199 30.6334 20.0199 30.6674 20.6746 30.5363C21.2734 30.4163 21.4762 30.324 26.8569 27.7211C30.0916 26.1563 30.2442 26.0611 30.4401 25.4861C30.5823 25.069 30.5666 24.7165 30.3891 24.3352C30.0994 23.7132 29.4588 23.3426 28.815 23.4245C28.6474 23.4459 27.1026 23.8574 25.3822 24.3389C23.0878 24.9812 22.2473 25.1923 22.2278 25.1313C22.2132 25.0857 22.0822 24.9306 21.9367 24.787C21.7002 24.5532 21.3409 24.391 18.5435 23.2562C15.0083 21.8219 14.7007 21.7097 13.8021 21.5262C12.7986 21.3211 11.8248 21.3034 10.216 21.4608C9.44989 21.5358 8.80434 21.5971 8.78151 21.5971C8.75861 21.5971 8.69771 21.4962 8.64617 21.3728C8.50005 21.0232 8.21718 20.888 7.63067 20.8878C7.13795 20.8876 7.13543 20.8866 7.00067 20.6686C6.7738 20.3016 6.55931 20.2424 5.45459 20.2424C4.56656 20.2424 4.46915 20.2538 4.35155 20.3714ZM4.93213 24.8548V28.7619L5.65786 28.7436L6.38358 28.7253V24.8548V20.9843L5.65786 20.9661L4.93213 20.9478V24.8548ZM7.12543 24.8841V28.1771L7.49637 28.1761C7.70034 28.1755 7.90387 28.1519 7.94851 28.1234C8.01244 28.0829 8.02624 27.3849 8.01301 24.8506L7.99631 21.6293L7.56087 21.6103L7.12543 21.5913V24.8841ZM10.0605 22.1814C9.45744 22.2451 8.91317 22.2995 8.85105 22.302C8.74564 22.3064 8.73816 22.4652 8.73816 24.6935C8.73816 26.5609 8.75571 27.08 8.81879 27.0787C8.86317 27.0778 9.14618 27.0205 9.44776 26.9513C10.1103 26.7995 10.9982 26.7868 11.5675 26.921C11.7931 26.9741 13.5091 27.6399 15.3809 28.4003C17.6807 29.3347 18.9262 29.8077 19.2228 29.8594C19.7722 29.955 20.4591 29.906 20.9626 29.7353C21.3007 29.6207 28.9193 25.9678 29.4021 25.6889C29.7896 25.465 29.9384 24.9562 29.7327 24.5585C29.6089 24.319 29.2827 24.1135 29.0262 24.1133C28.8758 24.1132 25.2229 25.1002 22.6882 25.8258C22.4627 25.8904 22.3495 25.9571 22.3495 26.0252C22.3495 26.224 22.0064 26.7545 21.7764 26.9114C21.4798 27.1137 21.0424 27.2293 20.7798 27.175C20.3647 27.0892 15.5522 25.5927 15.4689 25.5235C15.3616 25.4344 15.3561 25.1328 15.4599 25.029C15.5026 24.9864 15.6075 24.9515 15.693 24.9515C15.7786 24.9515 16.9929 25.3019 18.3913 25.73C20.7293 26.4459 20.9519 26.5027 21.157 26.435C21.4701 26.3316 21.64 26.0917 21.64 25.7529C21.64 25.3253 21.4869 25.2077 20.3175 24.7368C19.7499 24.5082 18.2839 23.9142 17.0598 23.4169C15.8358 22.9195 14.6155 22.4519 14.348 22.3778C13.1082 22.0344 11.9518 21.9814 10.0605 22.1814Z" fill="#0482CB"/>
</g>
</g>
<defs>
<clipPath id="clip0_1_197">
<rect width="34" height="34" fill="white" transform="translate(0 0.974976)"/>
</clipPath>
<clipPath id="clip1_1_197">
<rect width="34" height="34" fill="white" transform="translate(0 0.974976)"/>
</clipPath>
</defs>
</svg>
