<svg width="33" height="33" viewBox="0 0 33 33" fill="none" xmlns="http://www.w3.org/2000/svg">
<g clip-path="url(#clip0_1_734)">
<g clip-path="url(#clip1_1_734)">
<g clip-path="url(#clip2_1_734)">
<mask id="mask0_1_734" style="mask-type:luminance" maskUnits="userSpaceOnUse" x="0" y="1" width="33" height="31">
<path d="M32.3301 1.11426H0.330078V31.9997H32.3301V1.11426Z" fill="white"/>
</mask>
<g mask="url(#mask0_1_734)">
<path fill-rule="evenodd" clip-rule="evenodd" d="M10.3649 1.25005C10.2347 1.36098 10.1831 1.50148 10.0824 2.01917C9.65533 4.21487 9.26314 6.82723 9.33377 7.00651C9.41033 7.20081 9.66046 7.34058 9.84964 7.29479C10.1466 7.22283 10.1944 7.0988 10.3609 5.96714C10.4982 5.03412 10.8993 2.68767 11.0669 1.83712C11.1336 1.49846 11.061 1.27364 10.8557 1.18333C10.6316 1.08476 10.5449 1.09653 10.3649 1.25005ZM14.8068 1.23937C14.7058 1.31598 14.6421 1.42384 14.6421 1.51813C14.6421 1.60276 14.7682 2.32688 14.9224 3.12743C15.2463 4.80936 15.5656 6.75013 15.8105 8.5258C15.9637 9.63623 15.9824 9.95968 15.9837 11.52C15.9851 13.0628 15.9264 14.0444 15.7941 14.6906C15.7703 14.8064 15.6732 14.887 15.4054 15.013C14.9401 15.2319 14.126 15.7614 13.7534 16.0876C13.3636 16.4288 13.3186 16.616 13.5684 16.8571C13.6724 16.9575 13.8134 17.0396 13.8816 17.0396C13.9498 17.0396 14.2372 16.8621 14.5202 16.6451C15.712 15.7315 16.7735 15.3136 19.2558 14.7808C23.2274 13.9285 26.9417 13.7203 30.9839 14.1236L32.0335 14.2283L32.1816 14.0622C32.358 13.8642 32.3706 13.6634 32.218 13.4815C32.0922 13.3315 31.4955 13.2373 29.9546 13.1241C25.6941 12.8112 21.5536 13.1998 17.5323 14.2899C17.1286 14.3994 16.7915 14.4838 16.7831 14.4777C16.7747 14.4715 16.7964 14.265 16.8312 14.0187C16.9387 13.2585 16.9782 10.8163 16.8978 9.89134C16.7232 7.88185 15.7621 2.01181 15.5074 1.39857C15.3824 1.09785 15.0829 1.02975 14.8068 1.23937ZM9.15746 8.67975C9.06783 8.78966 9.02039 9.00809 8.96414 9.56951C8.69421 12.2628 8.58171 14.0856 8.54008 16.4363C8.50927 18.1808 8.51889 18.5875 8.59964 18.9505C9.09139 21.1607 10.8647 22.485 14.1999 23.1328C16.1035 23.5025 20.2057 23.8919 23.6734 24.032C26.1511 24.1321 31.7692 24.1779 31.9808 24.0997C32.3274 23.9716 32.4392 23.6304 32.2117 23.3948C32.0987 23.2777 31.9949 23.271 29.6961 23.2327C28.3774 23.2107 26.6882 23.1927 25.9424 23.1926C22.9284 23.1924 17.1775 22.7434 14.7671 22.32C11.5726 21.759 9.96558 20.6924 9.54002 18.8509C9.34821 18.021 9.48902 13.9174 9.83133 10.3602C9.89914 9.65584 9.95458 9.01116 9.95458 8.92749C9.95458 8.56049 9.39608 8.38694 9.15746 8.67975ZM6.91177 16.9194C6.75077 16.982 6.64183 17.1573 6.64271 17.3523C6.64396 17.6125 7.06814 18.858 7.18458 18.9432C7.43152 19.1239 7.84133 18.9924 7.91502 18.7089C7.93677 18.6253 7.86321 18.2673 7.73808 17.8479C7.57596 17.3045 7.48427 17.0971 7.36077 16.9943C7.18477 16.8479 7.12227 16.8375 6.91177 16.9194ZM4.79552 18.3941C4.61527 18.568 4.59839 18.7857 4.75146 18.9615C4.88496 19.1147 6.17064 19.8106 6.40358 19.8558C6.52877 19.88 6.61196 19.849 6.73171 19.7334C6.93408 19.5381 6.94233 19.2763 6.75146 19.1091C6.53014 18.9152 5.23921 18.246 5.08652 18.246C5.01083 18.246 4.87989 18.3127 4.79552 18.3941ZM5.36208 20.5088C4.51027 20.7587 4.36108 20.8964 4.51596 21.2895C4.62883 21.5761 4.84321 21.5948 5.61083 21.3851C6.52852 21.1344 6.61408 21.098 6.69646 20.9235C6.79533 20.7141 6.78571 20.6378 6.63752 20.456C6.46452 20.2436 6.23333 20.2532 5.36208 20.5088ZM7.49421 21.8112L6.63083 22.2999L6.02708 22.2292C4.77602 22.0827 3.52333 22.3923 2.47989 23.1058C1.57314 23.7258 0.819265 24.7619 0.507515 25.8166C0.306828 26.4956 0.304078 27.6624 0.501703 28.3295C0.860578 29.541 1.50189 30.4344 2.48227 31.0886C3.42239 31.7158 4.25733 31.9589 5.48583 31.963C6.42546 31.9662 6.83964 31.8809 7.61083 31.5254C8.21402 31.2473 9.06077 30.6151 9.11633 30.4014C9.18146 30.151 9.09302 29.9484 8.88102 29.8623C8.61964 29.7562 8.52827 29.7887 8.10146 30.1393C7.40033 30.7152 6.31352 31.0963 5.37908 31.0938C4.18327 31.0906 2.91683 30.4939 2.17702 29.5851C1.16777 28.3452 0.996515 26.7363 1.72133 25.3038C1.92552 24.9004 2.08789 24.6879 2.48333 24.307C3.44952 23.3763 4.66071 22.9638 5.91958 23.1369C6.80014 23.2579 6.80927 23.2561 7.57952 22.8112C7.96308 22.5896 8.28914 22.4083 8.30414 22.4083C8.31908 22.4083 8.31377 22.7816 8.29221 23.2378C8.25321 24.0636 8.25377 24.0681 8.41558 24.2783C9.19983 25.297 9.48483 25.9337 9.55589 26.8257C9.58596 27.2031 9.56777 27.4588 9.48377 27.8402C9.34696 28.4613 9.34777 28.595 9.48914 28.7458C9.63208 28.8983 10.022 28.9037 10.1613 28.7551C10.2891 28.6188 10.4406 28.0038 10.4932 27.4076C10.5891 26.3205 10.187 25.0452 9.45339 24.1104L9.20327 23.7916L9.24483 22.7715L9.28633 21.7513L9.06421 21.5369C8.70933 21.1944 8.52808 21.2261 7.49421 21.8112ZM6.00514 24.4744C5.95108 24.5159 5.75314 24.7534 5.56527 25.0022C4.36671 26.5894 4.20458 26.8278 4.20458 27.0023C4.20458 27.3817 4.43246 27.5524 5.03271 27.623C5.23033 27.6461 5.39158 27.6835 5.39096 27.706C5.39033 27.7285 5.11077 28.1157 4.76971 28.5664C4.42871 29.0171 4.13102 29.4576 4.10821 29.5452C4.07521 29.6722 4.10508 29.7413 4.25589 29.8869C4.45521 30.0793 4.57546 30.108 4.76689 30.0092C4.87639 29.9526 6.41533 27.9614 6.57058 27.6755C6.69139 27.4529 6.65427 27.2367 6.46352 27.0525C6.32127 26.9153 6.20658 26.8716 5.89958 26.8381C5.68771 26.8149 5.49964 26.7732 5.48177 26.7453C5.46389 26.7173 5.71958 26.3378 6.04989 25.9019C6.38027 25.466 6.67383 25.0501 6.70233 24.9777C6.76596 24.8163 6.63758 24.4937 6.48764 24.4382C6.32114 24.3765 6.11239 24.3922 6.00514 24.4744Z" fill="white"/>
</g>
</g>
</g>
</g>
<defs>
<clipPath id="clip0_1_734">
<rect width="32" height="32" fill="white" transform="translate(0.330078 0.779785)"/>
</clipPath>
<clipPath id="clip1_1_734">
<rect width="32" height="32" fill="white" transform="translate(0.330078 0.779785)"/>
</clipPath>
<clipPath id="clip2_1_734">
<rect width="32" height="32" fill="white" transform="translate(0.330078 0.779785)"/>
</clipPath>
</defs>
</svg>
