<svg width="53" height="53" viewBox="0 0 53 53" fill="none" xmlns="http://www.w3.org/2000/svg">
<g clip-path="url(#clip0_1_165)">
<g clip-path="url(#clip1_1_165)">
<path d="M10.1459 11.2896L11.6592 14.4178L15.092 14.8849C15.7725 14.9763 16.0163 15.8193 15.549 16.2662L13.0405 18.6732L13.66 22.0856C13.7819 22.756 13.0709 23.2638 12.4819 22.9388L9.42485 21.2935L6.36782 22.9388C5.77876 23.2536 5.03735 22.7662 5.19985 22.0349L5.80923 18.663L3.30064 16.256C2.81314 15.7888 3.0772 14.956 3.76782 14.8646L7.19048 14.3974L8.70376 11.2693C8.98814 10.6701 9.86157 10.6802 10.1459 11.2896ZM10.3897 15.5146L9.42485 13.5036L8.44985 15.5146C8.33814 15.7482 8.10454 15.931 7.83032 15.9716L5.62641 16.2662L7.24126 17.8099C7.42407 17.9928 7.52564 18.2568 7.47485 18.531L7.07876 20.7248L9.02877 19.6786C9.26235 19.5568 9.55688 19.5365 9.80064 19.6786L11.7608 20.7349L11.3749 18.5818C11.3139 18.3178 11.385 18.0232 11.5983 17.8099L13.2132 16.2662L11.0296 15.9716C10.7655 15.9412 10.5116 15.7685 10.3897 15.5146ZM27.4319 3.9263L28.9452 7.05443L32.3882 7.52162C33.0686 7.61302 33.3123 8.45599 32.8452 8.91302L30.3366 11.3201L30.9561 14.7325C31.078 15.4029 30.367 15.9106 29.778 15.5856L26.7006 13.9404L23.6436 15.5856C23.0546 15.9005 22.3132 15.413 22.4756 14.6818L23.085 11.3099L20.5663 8.90286C20.0788 8.43567 20.3428 7.60287 21.0335 7.51146L24.4561 7.04427L25.9693 3.9263C26.274 3.30677 27.1373 3.31693 27.4319 3.9263ZM27.6756 8.1513L26.7006 6.14036L25.7358 8.1513C25.624 8.3849 25.3905 8.56771 25.1163 8.60833L22.9022 8.90286L24.517 10.4466C24.71 10.6295 24.8015 10.8935 24.7506 11.1678L24.3546 13.3615L26.3147 12.3154C26.5483 12.1935 26.8326 12.1732 27.0866 12.3154L29.0467 13.3716L28.6608 11.2185C28.5999 10.9545 28.6709 10.6599 28.8842 10.4466L30.4991 8.90286L28.3155 8.59817C28.0413 8.57787 27.7975 8.40521 27.6756 8.1513ZM44.7076 11.2896L46.2209 14.4178L49.6538 14.8849C50.3342 14.9763 50.5882 15.8193 50.1108 16.2662L47.6022 18.6732L48.2217 22.0856C48.3436 22.756 47.6326 23.2638 47.0436 22.9388L43.9866 21.2935L40.9296 22.9388C40.3405 23.2536 39.5991 22.7662 39.7515 22.0349L40.3608 18.663L37.8522 16.256C37.3647 15.7888 37.6288 14.956 38.3193 14.8646L41.742 14.3974L43.2553 11.2693C43.5499 10.6701 44.4233 10.6802 44.7076 11.2896ZM44.9515 15.5146L43.9866 13.5036L43.0116 15.5146C42.8999 15.7482 42.6765 15.931 42.392 15.9716L40.1882 16.2662L41.7929 17.8099C41.9756 17.9928 42.0772 18.2568 42.0265 18.531L41.6303 20.7248L43.5905 19.6786C43.824 19.5568 44.1186 19.5365 44.3623 19.6786L46.3326 20.7349L45.9467 18.5818C45.8858 18.3178 45.9569 18.0232 46.1702 17.8099L47.7749 16.2662L45.5913 15.9716C45.3272 15.9412 45.0733 15.7685 44.9515 15.5146ZM22.9326 32.0286C22.7092 31.6428 22.8413 31.1451 23.2272 30.9216C23.6132 30.6982 24.1108 30.8302 24.3342 31.2162L25.4006 33.0646L29.1889 29.2763C29.5038 28.9615 30.0217 28.9615 30.3366 29.2763C30.6515 29.5912 30.6515 30.1091 30.3366 30.4239L25.7967 34.9638C25.4209 35.3396 24.7913 35.2583 24.5272 34.8013L22.9326 32.0286ZM26.7006 23.4466C31.1186 23.4466 34.7038 27.0318 34.7038 31.4498C34.7038 35.8678 31.1186 39.4529 26.7006 39.4529C22.2826 39.4529 18.6975 35.8678 18.6975 31.4498C18.6975 27.0318 22.2826 23.4466 26.7006 23.4466ZM31.21 26.9404C28.7217 24.4521 24.6796 24.4521 22.1913 26.9404C19.703 29.4286 19.703 33.4708 22.1913 35.9591C24.6796 38.4474 28.7217 38.4474 31.21 35.9591C33.6983 33.4606 33.6983 29.4286 31.21 26.9404ZM26.7006 18.4192C33.8913 18.4192 39.7209 24.2489 39.7209 31.4396C39.7209 34.1615 38.8882 36.6904 37.4561 38.7825L41.3459 45.5162C41.7217 46.1458 41.2038 46.8568 40.5335 46.7552L36.5522 46.1255L34.4193 48.7458C34.0436 49.2333 33.3428 49.1521 33.0686 48.6646L30.3467 43.9521C27.9702 44.6428 25.4209 44.6428 23.0546 43.9521L20.3326 48.6646C20.0585 49.1521 19.3576 49.2333 18.9819 48.7458L16.849 46.1255L12.8678 46.7552C12.1873 46.8669 11.71 46.1255 12.035 45.5466L15.9452 38.7825C12.4108 33.613 13.0709 26.656 17.499 22.2279C19.8452 19.8818 23.1053 18.4192 26.7006 18.4192ZM36.3796 40.1536C35.1405 41.5349 33.617 42.6419 31.8905 43.3935L33.8811 46.8365L35.5873 44.7442C35.7803 44.5005 36.0749 44.4091 36.3592 44.4599L39.1015 44.8966L36.3796 40.1536ZM21.5006 43.3935C19.7842 42.6419 18.2608 41.5349 17.0217 40.1638L14.2897 44.8966L17.0319 44.4599C17.3061 44.4091 17.6108 44.5106 17.8038 44.7442L19.51 46.8365L21.5006 43.3935ZM34.7647 23.3856C30.3163 18.9372 23.0952 18.9372 18.6467 23.3856C14.1983 27.8341 14.1983 35.0552 18.6467 39.5036C23.1053 43.9521 30.3163 43.9521 34.7647 39.5036C39.2132 35.0552 39.2132 27.8341 34.7647 23.3856Z" fill="#0482CB"/>
</g>
</g>
<defs>
<clipPath id="clip0_1_165">
<rect x="0.699951" y="0.27002" width="52" height="52" rx="26" fill="white"/>
</clipPath>
<clipPath id="clip1_1_165">
<rect width="52" height="52" fill="white" transform="translate(0.699951 0.27002)"/>
</clipPath>
</defs>
</svg>
