<svg width="33" height="33" viewBox="0 0 33 33" fill="none" xmlns="http://www.w3.org/2000/svg">
<g clip-path="url(#clip0_1_779)">
<g clip-path="url(#clip1_1_779)">
<mask id="mask0_1_779" style="mask-type:luminance" maskUnits="userSpaceOnUse" x="0" y="1" width="33" height="31">
<path d="M32.3301 1.11426H0.330078V31.9997H32.3301V1.11426Z" fill="white"/>
</mask>
<g mask="url(#mask0_1_779)">
<path fill-rule="evenodd" clip-rule="evenodd" d="M26.0489 1.19515C25.6384 1.32665 25.2888 1.52192 25.017 1.77141L24.7607 2.00673L24.3793 1.81683C24.0533 1.65445 23.9178 1.6238 23.446 1.60583C22.9418 1.58658 22.8601 1.60003 22.5027 1.76152C22.2875 1.8587 22.003 2.03695 21.8705 2.1576L21.6296 2.37693L21.3922 2.26003C20.8563 1.99611 20.0342 2.00721 19.4641 2.28609C19.1581 2.43575 18.6291 2.93504 18.5106 3.18623C18.447 3.32099 18.4233 3.32787 18.214 3.27207C17.846 3.17398 17.1936 3.24758 16.8051 3.43102C16.3759 3.6337 15.8696 4.15791 15.7259 4.54838L15.619 4.83884L15.209 4.87582C14.4262 4.94633 13.7313 5.41571 13.3838 6.10864C13.2859 6.30379 13.2363 6.53301 13.2185 6.87251C13.1823 7.56237 13.3429 7.95332 13.8722 8.46462L14.2689 8.84779L14.0452 9.3875C13.6793 10.2702 13.3927 11.5267 13.3927 12.2481C13.3927 12.5795 13.5521 12.7565 13.8506 12.7565C14.1972 12.7565 14.2993 12.5828 14.3839 11.8492C14.4728 11.0786 14.6919 10.2633 14.9905 9.59248L15.2129 9.09288L15.5804 9.06067C16.4524 8.98436 17.1794 8.40665 17.4769 7.55362C17.5021 7.48141 17.5793 7.44805 17.7214 7.44805C18.0374 7.44805 18.6479 7.27837 18.8927 7.12249C19.1886 6.93398 19.5583 6.55889 19.6433 6.36073L19.713 6.19846L20.2872 6.22621C20.9983 6.26059 21.4195 6.128 21.8864 5.72281L22.1988 5.45178L22.4676 5.58606C22.8106 5.75732 23.6746 5.81077 24.0442 5.6836L24.2894 5.59927L24.5857 6.02684C25.0858 6.74843 25.7356 7.13878 26.5281 7.19349L26.9566 7.22305L27.0634 7.56176C27.3523 8.47759 27.0729 10.1228 26.0183 13.716C25.7788 14.532 25.5351 15.4575 25.4767 15.7727C25.3303 16.563 25.3304 18.1679 25.477 19.0905C25.6444 20.1438 26.024 21.6591 26.2001 21.9767C26.3521 22.2508 26.8571 22.2076 27.006 21.9078C27.0779 21.7631 27.0688 21.6751 26.9342 21.2155C26.5006 19.7348 26.3239 18.6321 26.322 17.3967C26.3203 16.2522 26.4206 15.7077 26.9876 13.7823C27.4373 12.2549 27.8476 10.5832 28.0538 9.43872C28.1831 8.72021 28.1456 7.82532 27.9627 7.26835C27.8425 6.90219 27.8412 6.87402 27.9417 6.82262C28.1758 6.70288 28.7088 6.11063 28.8841 5.77548C29.1736 5.22183 29.2791 4.79082 29.2791 4.16045C29.2791 3.21778 28.9604 2.43659 28.3261 1.82443C27.8431 1.3582 27.3941 1.15913 26.7689 1.13398C26.4918 1.12282 26.1964 1.14791 26.0489 1.19515ZM26.2529 2.0755C25.7539 2.23083 25.3964 2.6067 25.1582 3.22652C24.9649 3.7295 24.9309 4.15194 25.0423 4.66451C25.3041 5.86898 26.0912 6.48276 27.0347 6.21801C28.0279 5.93931 28.6036 4.53933 28.2096 3.36068C27.9467 2.57419 27.4168 2.09559 26.755 2.04672C26.5729 2.03333 26.347 2.04624 26.2529 2.0755ZM22.8614 2.60182C22.4181 2.82743 22.1454 3.23714 22.1454 3.67786C22.1454 3.96343 22.3166 4.34889 22.5259 4.53457C22.8529 4.82466 23.3959 4.93089 23.8209 4.78793L24.0177 4.72169L24.0213 4.19978C24.0234 3.89346 24.0729 3.50347 24.1412 3.2556C24.2496 2.86205 24.2504 2.82779 24.1532 2.75148C23.8296 2.49746 23.2081 2.42543 22.8614 2.60182ZM19.9122 3.10147C19.7611 3.16771 19.5708 3.32232 19.4621 3.46709C18.8753 4.249 19.4478 5.33065 20.4511 5.33542C20.7729 5.33699 21.2141 5.15011 21.3856 4.93964C21.5024 4.79637 21.502 4.78974 21.3561 4.44728C21.2456 4.18795 21.2078 3.98346 21.2067 3.63919L21.2052 3.1782L20.9539 3.0812C20.6217 2.9529 20.2341 2.96044 19.9122 3.10147ZM17.373 4.19163C17.0843 4.27524 16.7894 4.53143 16.6409 4.82756C16.3666 5.37439 16.5911 6.0558 17.1444 6.3559C17.6281 6.61831 18.3703 6.48795 18.7006 6.08264C18.9188 5.81493 18.9268 5.66466 18.7342 5.44382C18.526 5.205 18.3609 4.84602 18.3004 4.50061C18.2659 4.30383 18.2192 4.23012 18.1013 4.18687C17.9174 4.11937 17.6155 4.12136 17.373 4.19163ZM15.1418 5.81463C14.3608 5.96187 13.9321 6.76007 14.2553 7.46519C14.4935 7.98505 15.1523 8.27858 15.7153 8.11583C16.0542 8.01781 16.4374 7.67004 16.528 7.37832C16.6005 7.14475 16.5979 7.13793 16.3719 6.95805C16.0983 6.74034 15.8174 6.35814 15.7015 6.04554C15.6553 5.92116 15.5974 5.81933 15.5728 5.81933C15.5481 5.81933 15.4904 5.80895 15.4447 5.79629C15.3989 5.78362 15.2626 5.79182 15.1418 5.81463ZM18.6177 12.7113C18.4961 12.8164 18.4153 13.0204 18.2588 13.6167L18.0568 14.3865L18.1841 14.5517C18.4094 14.844 18.8468 14.8076 18.9865 14.4849C19.0336 14.3762 19.1458 14.0065 19.2359 13.6633C19.4184 12.9686 19.3929 12.7706 19.1043 12.6437C18.8821 12.546 18.7948 12.5581 18.6177 12.7113ZM8.81393 12.9686C5.86412 13.5077 3.67699 15.8131 3.39768 18.6777C3.15405 21.1769 4.51412 23.6194 6.83018 24.8418C7.37074 25.1272 8.42468 25.4593 9.0753 25.5494C10.5669 25.7559 12.3286 25.3653 13.6234 24.5408C14.1784 24.1875 15.0523 23.342 15.4323 22.7908C15.7888 22.2736 16.1421 21.552 16.2769 21.0653C16.3205 20.9081 16.3722 20.7795 16.3918 20.7795C16.4585 20.7795 17.3363 22.1941 17.6459 22.8003C18.0427 23.5775 18.2155 24.1785 18.5215 25.846C18.9137 27.9826 19.1304 28.6948 19.6418 29.5264C20.3098 30.6128 21.5129 31.4718 22.8648 31.8276C23.6029 32.0218 25.0348 32.0231 25.7364 31.8302C26.6331 31.5837 27.2323 31.2535 27.8339 30.6745C28.8581 29.6889 29.2431 28.5122 28.9936 27.1296C28.8716 26.4539 27.7629 23.522 27.5674 23.3583C27.3172 23.1488 26.8436 23.3023 26.8228 23.5996C26.8091 23.7949 26.8377 23.8821 27.3643 25.2492C28.0058 26.9148 28.0816 27.1859 28.0874 27.8373C28.0954 28.7364 27.8172 29.4284 27.2139 30.0095C25.4267 31.731 22.0114 31.3171 20.5573 29.2027C20.0598 28.4793 19.8279 27.7379 19.4603 25.6958C19.009 23.1887 18.7902 22.6625 17.2014 20.2633C16.636 19.4095 16.5973 19.3307 16.5568 18.9488L16.5137 18.5426L17.3573 17.5161C18.2924 16.3782 18.3754 16.2067 18.1676 15.8407C17.9408 15.4411 17.8549 15.4141 16.3874 15.2788L15.0489 15.1555L14.5338 14.679C13.6696 13.8796 12.713 13.3596 11.5876 13.0774C10.8203 12.885 9.54524 12.835 8.81393 12.9686ZM9.00824 13.8764C6.2708 14.3545 4.33018 16.58 4.33018 19.2413C4.33018 22.1037 6.5518 24.3983 9.58668 24.6704C11.2546 24.8199 13.1274 24.0575 14.2444 22.7742C15.1871 21.691 15.5802 20.6015 15.5802 19.0713C15.5802 18.1328 15.5038 18.2973 16.5071 17.0763C16.8585 16.6486 17.1383 16.2916 17.1288 16.2831C17.1193 16.2745 16.5921 16.2211 15.9574 16.1645C15.3228 16.1078 14.7386 16.0377 14.6592 16.0085C14.5798 15.9795 14.2685 15.7177 13.9673 15.4268C12.6423 14.1473 10.7839 13.5662 9.00824 13.8764ZM20.5539 14.0588C20.049 14.3205 19.4335 14.6914 19.2833 14.8245C19.144 14.948 19.1066 15.1292 19.1815 15.3175C19.2375 15.4583 19.5633 15.605 19.7162 15.5582C19.9318 15.4921 21.2246 14.7444 21.3095 14.6366C21.4229 14.4927 21.4106 14.2381 21.2833 14.0929C21.1061 13.8907 20.8971 13.8809 20.5539 14.0588ZM10.7771 15.9386C10.6003 16.0829 8.57437 18.7808 8.49768 18.9743C8.35112 19.3438 8.63905 19.7201 9.11918 19.7865C9.2868 19.8096 9.59693 19.8593 9.80843 19.8969L10.1929 19.9651L9.26312 21.2018C8.75174 21.8819 8.33262 22.4973 8.33174 22.5692C8.32924 22.7804 8.3963 22.8895 8.58724 22.9848C8.97155 23.1766 8.95587 23.1929 10.9052 20.578C11.4659 19.8259 11.5118 19.6433 11.2198 19.3279C11.0622 19.1576 10.9879 19.1326 10.3761 19.0444C10.007 18.9912 9.70518 18.9291 9.70518 18.9066C9.70518 18.884 10.1124 18.3257 10.6101 17.666C11.5875 16.3702 11.6418 16.2489 11.3643 15.9811C11.1841 15.8071 10.9583 15.7908 10.7771 15.9386ZM19.4836 16.1017C19.1855 16.3894 19.3068 16.7421 19.7514 16.8809C20.2013 17.0213 21.0526 17.2204 21.2028 17.2204C21.3866 17.2204 21.6427 16.957 21.6427 16.768C21.6427 16.4814 21.4183 16.3518 20.5647 16.1455C20.1281 16.04 19.7408 15.9537 19.704 15.9537C19.6671 15.9537 19.568 16.0203 19.4836 16.1017Z" fill="white"/>
</g>
</g>
</g>
<defs>
<clipPath id="clip0_1_779">
<rect width="32" height="32" fill="white" transform="translate(0.330078 0.779785)"/>
</clipPath>
<clipPath id="clip1_1_779">
<rect width="32" height="32" fill="white" transform="translate(0.330078 0.779785)"/>
</clipPath>
</defs>
</svg>
