<svg width="32" height="30" viewBox="0 0 32 30" fill="none" xmlns="http://www.w3.org/2000/svg">
<g clip-path="url(#clip0_1_764)">
<g clip-path="url(#clip1_1_764)">
<g clip-path="url(#clip2_1_764)">
<mask id="mask0_1_764" style="mask-type:luminance" maskUnits="userSpaceOnUse" x="0" y="0" width="32" height="30">
<path d="M31.9966 0.694824H0.00366211V29.6259H31.9966V0.694824Z" fill="white"/>
</mask>
<g mask="url(#mask0_1_764)">
<path fill-rule="evenodd" clip-rule="evenodd" d="M15.0026 0.819572C14.339 1.04995 13.7506 1.77803 13.7506 2.36891C13.7506 2.5073 13.7264 2.56013 13.6725 2.53967C13.6296 2.5234 13.4418 2.46729 13.2553 2.41502C12.3733 2.1678 11.3761 2.56866 10.9582 3.33827L10.7825 3.66171L10.764 5.58744C10.7463 7.41581 10.7514 7.51994 10.8652 7.64709C11.0306 7.83185 11.4077 7.83361 11.5717 7.65042C11.6804 7.52904 11.6886 7.3949 11.6886 5.74436C11.6886 3.78055 11.6969 3.73087 12.0781 3.42823C12.3379 3.22198 12.6564 3.15406 12.9864 3.23442C13.2509 3.29883 13.583 3.57786 13.6844 3.82077C13.7292 3.92842 13.7506 5.54139 13.7506 8.81004V13.6402L13.9041 13.7789C14.0995 13.9557 14.3391 13.9557 14.5345 13.7789L14.6879 13.6402V7.96765V2.29512L14.8319 2.04903C14.995 1.77 15.3932 1.54274 15.7189 1.54274C16.0447 1.54274 16.4429 1.77 16.6061 2.04903L16.7499 2.29512V8.2652C16.7499 14.1952 16.7509 14.2362 16.8773 14.3589C17.045 14.5217 17.3971 14.5263 17.5473 14.3678C17.6485 14.2609 17.6583 13.879 17.6872 8.86258C17.7183 3.50367 17.7192 3.47123 17.8493 3.31268C18.309 2.75157 19.1275 2.75157 19.5873 3.31262C19.716 3.46954 19.7186 3.53045 19.7493 7.05416C19.7842 11.0537 19.7567 10.8323 20.218 10.8323C20.6653 10.8323 20.6518 10.9049 20.6866 8.33115L20.7178 6.02598L20.8929 5.81849C21.1211 5.54811 21.3594 5.44166 21.7365 5.44166C22.1289 5.44166 22.4192 5.61049 22.608 5.94851L22.7486 6.20019L22.7484 11.1184C22.7482 13.8944 22.7205 16.3811 22.6846 16.8276C22.4468 19.7858 21.8154 22.2239 20.9361 23.5791C20.8047 23.7816 20.5119 24.1325 20.2857 24.3589C19.4716 25.1732 19.3744 25.4953 19.3744 27.3778V28.7787H15.4427H11.511L11.4869 27.1258C11.4644 25.5841 11.453 25.4465 11.3185 25.0775C11.0986 24.4747 10.7377 23.8692 10.3044 23.3761C9.84154 22.8493 9.31943 22.148 8.91521 21.5099C8.57478 20.9725 8.38664 20.8583 8.07839 21.0025C7.68436 21.1867 7.71847 21.3796 8.3004 22.2554C8.78999 22.9923 9.10635 23.4051 9.61797 23.9746C9.77097 24.145 10.0043 24.4883 10.1364 24.7375C10.5197 25.4603 10.5616 25.7474 10.5628 27.6652L10.5638 29.3489L10.7172 29.4875L10.8706 29.6263H15.4553H20.0399L20.1718 29.4991C20.2991 29.3764 20.3043 29.3119 20.3233 27.6203L20.3429 25.8686L20.5094 25.5475C20.6009 25.3708 20.8408 25.0658 21.0424 24.8694C22.1986 23.7436 23.0054 21.6753 23.4299 18.7488C23.6692 17.0991 23.6946 16.2916 23.6742 10.9792L23.6547 5.86545L23.5102 5.60027C23.3086 5.23004 22.9238 4.89117 22.5113 4.72036C22.0518 4.53009 21.4203 4.51954 20.9834 4.6947L20.6866 4.81376V4.17733C20.6866 3.41732 20.594 3.094 20.2634 2.70111C20.0917 2.49695 19.9077 2.36416 19.6005 2.22239C19.2303 2.05169 19.117 2.02638 18.7279 2.02784C18.4124 2.02903 18.1958 2.06412 17.9919 2.14712L17.7029 2.26471L17.6271 2.03089C17.2903 0.990447 16.0969 0.439682 15.0026 0.819572ZM3.62788 2.05214C1.72893 2.82067 1.83459 2.76881 1.75661 2.97104C1.69731 3.12491 1.78948 3.34483 2.78919 5.43504C3.39294 6.69739 3.94418 7.77462 4.01423 7.82903C4.19944 7.97284 4.35535 7.95069 4.85848 7.70912L5.30801 7.49333L6.1002 8.57237C6.53593 9.1658 6.95014 9.7086 7.02069 9.77849C7.18516 9.94163 7.51695 9.94863 7.68948 9.79262C7.80633 9.68695 7.81402 9.60875 7.80765 8.59187C7.80389 7.99358 7.78283 6.7835 7.76078 5.90274C7.72091 4.30808 7.7201 4.30091 7.5732 4.19343C7.35905 4.03674 7.17847 4.05833 6.57973 4.31204C6.28567 4.43664 6.03222 4.52693 6.01648 4.51269C6.00074 4.49846 5.947 3.86887 5.897 3.11366C5.82177 1.97715 5.78697 1.71616 5.69492 1.59924C5.4876 1.33581 5.2917 1.3787 3.62788 2.05214ZM26.8878 2.34795C26.691 2.53815 24.7898 6.11645 24.7898 6.29687C24.7898 6.51753 24.8976 6.60963 25.3175 6.74813C25.5199 6.81487 25.6855 6.89787 25.6855 6.93256C25.6855 6.96731 25.5449 7.44061 25.3731 7.98442C25.2012 8.52824 25.0607 9.05398 25.0607 9.15275C25.0607 9.36068 25.2986 9.5666 25.539 9.5666C25.6453 9.5666 26.1867 9.16636 27.4209 8.17558C28.3738 7.41055 29.2167 6.72259 29.2941 6.64681C29.4662 6.47803 29.4809 6.1751 29.3231 6.04598C29.2619 5.99587 29.044 5.88783 28.8389 5.80601C28.6339 5.72418 28.4534 5.64598 28.4379 5.63219C28.4224 5.61841 28.8277 5.22845 29.3388 4.76562C30.125 4.05335 30.2678 3.89779 30.2678 3.75348C30.2678 3.65974 30.2343 3.5465 30.1934 3.50192C30.0842 3.38291 27.338 2.22081 27.166 2.22081C27.0854 2.22081 26.9603 2.27799 26.8878 2.34795ZM3.87783 2.89967C3.34514 3.11513 2.88836 3.29843 2.86274 3.30702C2.82069 3.32115 4.44251 6.76226 4.52731 6.83894C4.54693 6.85662 4.72907 6.79108 4.9321 6.69321C5.37206 6.48114 5.61931 6.46656 5.79565 6.64241C5.86576 6.7123 6.12602 7.04506 6.37396 7.38185C6.62184 7.71862 6.82948 7.98561 6.8353 7.97515C6.8821 7.89131 6.79805 5.21563 6.74863 5.21563C6.71469 5.21563 6.46325 5.31734 6.18981 5.44166C5.63419 5.6943 5.4581 5.71656 5.24565 5.561C5.10549 5.45838 5.09675 5.40419 5.01601 4.13422C4.96984 3.40817 4.91279 2.74524 4.88923 2.66105L4.84637 2.50797L3.87783 2.89967ZM26.6688 4.60848C26.2645 5.36198 25.9341 5.99547 25.9345 6.01632C25.9351 6.03711 26.0761 6.09639 26.2478 6.14797C26.5888 6.25037 26.7477 6.40356 26.7477 6.62964C26.7477 6.70976 26.678 6.99021 26.5928 7.25273C26.5077 7.51531 26.4374 7.75004 26.4366 7.77439C26.4359 7.79869 26.8009 7.52164 27.2477 7.15865C27.6944 6.79571 28.06 6.48261 28.06 6.46294C28.06 6.44322 27.9141 6.37705 27.7359 6.31581C27.2765 6.15798 27.0606 5.98128 27.0585 5.76154C27.057 5.60478 27.1717 5.48211 27.9958 4.759C28.5122 4.30588 28.9348 3.92034 28.9348 3.90232C28.9348 3.86932 27.516 3.23769 27.443 3.2382C27.4215 3.23837 27.0731 3.85497 26.6688 4.60848ZM10.8787 8.78619C10.7534 8.9078 10.7513 8.96639 10.7513 12.2909V15.6721L10.591 15.7271C10.3746 15.8015 9.89969 15.7969 9.73182 15.7187C9.45668 15.5906 9.28813 15.393 8.52717 14.3067C7.51033 12.8551 7.16153 12.5519 6.22531 12.3059C5.76591 12.1851 4.8843 12.2105 4.58404 12.3533C4.29624 12.4901 4.05497 12.8031 4.02036 13.0844C3.99686 13.2757 4.06292 13.5073 4.34634 14.2284C5.27739 16.5969 6.90215 20.0494 7.17172 20.2321C7.32469 20.3357 7.52552 20.3185 7.71229 20.1856C7.95517 20.0129 7.92568 19.7913 7.56863 19.1068C6.89347 17.8124 5.90219 15.6024 5.18679 13.7964L4.94453 13.1847L5.07763 13.1204C5.26346 13.0304 5.91868 13.0876 6.25611 13.2232C6.4087 13.2845 6.6216 13.4019 6.72926 13.4843C6.83692 13.5666 7.30913 14.1795 7.77859 14.8463C8.24798 15.5133 8.72231 16.1278 8.83254 16.2121C8.94276 16.2964 9.18759 16.4303 9.37661 16.5098C10.0563 16.7952 11.0238 16.6582 11.5167 16.2068L11.6886 16.0493V12.4796C11.6886 8.9652 11.6866 8.90791 11.5612 8.78619C11.4781 8.7055 11.3595 8.66249 11.22 8.66249C11.0804 8.66249 10.9619 8.7055 10.8787 8.78619ZM19.8767 11.8375C19.7554 11.9552 19.7493 12.0302 19.7493 13.394V14.8268L19.9027 14.9654C19.9871 15.0417 20.129 15.1042 20.218 15.1042C20.307 15.1042 20.4489 15.0417 20.5332 14.9654L20.6866 14.8268V13.3932C20.6866 11.9677 20.6858 11.9589 20.542 11.8366C20.3518 11.6751 20.0436 11.6754 19.8767 11.8375Z" fill="white"/>
</g>
</g>
</g>
</g>
<defs>
<clipPath id="clip0_1_764">
<rect width="32" height="29.17" fill="white" transform="translate(0 0.694824)"/>
</clipPath>
<clipPath id="clip1_1_764">
<rect width="32" height="29.17" fill="white" transform="translate(0 0.694824)"/>
</clipPath>
<clipPath id="clip2_1_764">
<rect width="31.9929" height="29.17" fill="white" transform="translate(0.00366211 0.694824)"/>
</clipPath>
</defs>
</svg>
