<svg width="32" height="33" viewBox="0 0 32 33" fill="none" xmlns="http://www.w3.org/2000/svg">
<g clip-path="url(#clip0_1_719)">
<g clip-path="url(#clip1_1_719)">
<g clip-path="url(#clip2_1_719)">
<mask id="mask0_1_719" style="mask-type:luminance" maskUnits="userSpaceOnUse" x="0" y="1" width="32" height="32">
<path d="M32 1.55225H0V32.4376H32V1.55225Z" fill="white"/>
</mask>
<g mask="url(#mask0_1_719)">
<path fill-rule="evenodd" clip-rule="evenodd" d="M25.8927 1.59154C25.8224 1.61905 24.5908 3.08351 24.3545 3.42065C24.1268 3.74555 24.3348 4.14616 24.7314 4.14616C24.9889 4.14616 25.0608 4.07824 25.9066 3.03501C26.5639 2.22427 26.6326 2.11653 26.5992 1.94919C26.5374 1.64022 26.2021 1.47047 25.8927 1.59154ZM26.908 4.56721C26.1183 4.96221 25.4363 5.33284 25.3924 5.39087C25.253 5.57473 25.2937 5.87255 25.4771 6.01177C25.5677 6.08054 25.6989 6.13682 25.7687 6.13682C25.9299 6.13682 28.8171 4.71392 28.9218 4.5829C29.0421 4.43221 29.0171 4.10243 28.8749 3.96519C28.6437 3.74199 28.4226 3.80968 26.908 4.56721ZM10.0624 4.6051C9.90776 4.61704 9.27495 4.65583 8.6562 4.69124C6.99201 4.78655 5.11832 4.95346 3.5312 5.14782C2.93951 5.22027 2.75151 5.26654 2.64057 5.36698C2.4522 5.53751 2.45407 5.83291 2.64457 6.00568C2.80751 6.15335 3.07632 6.17115 3.74995 6.07867C3.97339 6.04803 4.73276 5.96713 5.43745 5.89897C14.2933 5.04196 20.5429 5.56218 22.3481 7.30661C22.6593 7.60744 22.7648 7.76392 22.9225 8.15915C23.2883 9.07582 23.3438 9.52137 23.3431 11.5358C23.3428 12.6181 23.3104 13.6122 23.2625 14.009C23.0223 15.9997 22.6272 18.2335 22.1501 20.2995C21.8819 21.4606 21.8719 21.536 21.9677 21.6771C22.1311 21.9177 22.3396 21.9801 22.5923 21.8638C22.8468 21.7467 22.8291 21.8002 23.2597 19.8345C23.9397 16.73 24.2964 14.1942 24.3549 12.0485C24.4138 9.88807 24.2114 8.52037 23.6788 7.47907C22.9048 5.96575 20.9203 5.12816 17.1249 4.71308C16.4374 4.63785 15.5099 4.61022 13.2812 4.59864C11.6656 4.59026 10.2171 4.59315 10.0624 4.6051ZM27.5955 7.11285C26.7691 7.16008 26.6432 7.18138 26.5174 7.29545C26.3325 7.46315 26.3225 7.82171 26.4985 7.97541C26.6481 8.10613 26.7456 8.11059 28.0937 8.04804C29.2222 7.99568 29.3795 7.95424 29.5116 7.67458C29.602 7.48293 29.4839 7.20213 29.274 7.10983C29.103 7.03461 28.9595 7.03485 27.5955 7.11285ZM18.7954 12.2207C17.3373 13.5039 13.2273 14.8881 9.81245 15.2459C9.0827 15.3223 8.87495 15.4305 8.87495 15.7338C8.87495 16.1743 9.08926 16.2816 9.81451 16.2042C11.7084 16.0023 13.7852 15.5302 15.6964 14.867L16.2991 14.6579L16.242 14.8462C16.0836 15.3676 15.874 16.7158 15.8183 17.5716C15.7018 19.3621 15.8968 21.1903 16.4163 23.1781C16.6753 24.1692 16.6041 24.3756 15.5268 25.758C14.4931 27.0843 14.2521 27.6112 14.2507 28.5482C14.2494 29.4179 14.5536 30.1625 15.1258 30.69C16.0642 31.5552 17.4396 31.6474 19.1592 30.9604C19.4626 30.8391 19.9228 30.711 20.1901 30.6735C21.2947 30.5181 22.8358 30.973 24.719 32.0105C25.3176 32.3403 25.8271 32.4585 26.4976 32.4231C27.2166 32.3852 27.6527 32.2167 28.126 31.7937C28.5756 31.392 28.8448 30.895 28.9391 30.2928C29.0815 29.3841 28.7033 28.7008 27.8825 28.384C27.5778 28.2663 27.4099 28.2475 26.6158 28.2423L25.7003 28.2363L25.3907 27.8788C24.5101 26.862 23.3429 26.0125 22.3605 25.6733C21.9318 25.5253 21.8166 25.4617 21.8407 25.3863C21.8912 25.2281 22.2887 23.8072 22.3784 23.4643C22.4554 23.1698 22.4522 23.1355 22.3338 22.9817C22.1676 22.7662 21.7688 22.72 21.6028 22.897C21.5062 23 20.6874 25.7243 20.6874 25.9426C20.6874 25.9891 20.7423 26.0945 20.8094 26.1768C20.9046 26.2937 21.0287 26.342 21.3764 26.3974C22.5462 26.5839 23.7138 27.3662 24.8233 28.7069C25.0609 28.9939 25.3173 29.2438 25.3933 29.2621C25.4691 29.2804 25.6437 29.2701 25.7812 29.2393C26.1324 29.1604 27.1574 29.1668 27.4436 29.2495C27.9413 29.3935 28.0976 29.7886 27.9076 30.4234C27.8259 30.6966 27.7338 30.8419 27.5095 31.0514C27.1706 31.3681 26.8395 31.4842 26.2864 31.4801C25.8316 31.4767 25.4857 31.3678 24.9374 31.0552C23.8993 30.4633 22.7354 30.0058 21.7868 29.8167C21.2031 29.7003 20.0911 29.6971 19.5936 29.8104C19.3873 29.8574 19.0265 29.9789 18.7919 30.0805C16.9248 30.8891 15.4399 30.3793 15.2606 28.8682C15.1627 28.0431 15.3715 27.5235 16.25 26.4054C16.9888 25.4652 17.2284 25.1032 17.3713 24.7108C17.5981 24.088 17.5956 23.8663 17.3512 22.8762C16.565 19.6918 16.5741 16.8413 17.3778 14.4869C17.4993 14.1312 17.5144 14.115 17.8868 13.944C18.3699 13.7221 19.095 13.2439 19.4656 12.9027C19.8016 12.5933 19.8396 12.3709 19.5965 12.1363C19.3656 11.9134 19.1146 11.9399 18.7954 12.2207ZM2.73514 14.9178C2.44314 15.0707 2.42514 15.5199 2.70407 15.6923C3.07576 15.9221 5.13064 16.2414 6.66907 16.3084L7.61201 16.3494L7.7747 16.1924C8.06107 15.916 7.93557 15.4777 7.54839 15.4018C7.4702 15.3865 7.01245 15.359 6.5312 15.3406C5.57782 15.3043 4.33551 15.1435 3.49995 14.9483C2.87714 14.8028 2.94914 14.8057 2.73514 14.9178ZM17.3953 26.0124C17.2169 26.133 17.1003 26.6292 17.1431 27.0854C17.2061 27.7561 17.703 28.1974 18.4292 28.2279C18.7265 28.2404 18.7804 28.2233 18.9131 28.0744C18.9953 27.9822 19.0624 27.8392 19.0624 27.7566C19.0624 27.5634 18.8004 27.3103 18.6006 27.3103C18.5153 27.3103 18.3695 27.2823 18.2765 27.2482L18.1073 27.1861L18.1481 26.7143C18.1844 26.2928 18.1749 26.2254 18.0586 26.0826C17.9086 25.8986 17.6103 25.867 17.3953 26.0124Z" fill="white"/>
</g>
</g>
</g>
</g>
<defs>
<clipPath id="clip0_1_719">
<rect width="32" height="32" fill="white" transform="translate(0 0.779785)"/>
</clipPath>
<clipPath id="clip1_1_719">
<rect width="32" height="32" fill="white" transform="translate(0 0.779785)"/>
</clipPath>
<clipPath id="clip2_1_719">
<rect width="32" height="32" fill="white" transform="translate(0 0.779785)"/>
</clipPath>
</defs>
</svg>
