<svg width="32" height="33" viewBox="0 0 32 33" fill="none" xmlns="http://www.w3.org/2000/svg">
<g clip-path="url(#clip0_1_674)">
<g clip-path="url(#clip1_1_674)">
<g clip-path="url(#clip2_1_674)">
<mask id="mask0_1_674" style="mask-type:luminance" maskUnits="userSpaceOnUse" x="0" y="1" width="32" height="32">
<path d="M32 1.51758H0V32.403H32V1.51758Z" fill="white"/>
</mask>
<g mask="url(#mask0_1_674)">
<path fill-rule="evenodd" clip-rule="evenodd" d="M15.6562 1.58484C12.6301 1.86106 9.8784 3.18521 8.35446 5.09854C7.41383 6.27948 6.9149 7.33671 6.58896 8.83972C6.37333 9.83384 6.31571 11.5582 6.45858 12.7373C6.66408 14.4325 7.10546 16.0977 7.87121 18.0667C8.70058 20.1993 8.89533 21.414 8.65596 22.9621C8.47746 24.1163 8.1169 25.1365 7.04608 27.5165C6.3424 29.0805 5.86083 30.3005 5.59402 31.1951C5.33921 32.0496 5.33302 32.1209 5.49996 32.282C5.6234 32.4011 5.70827 32.4026 12.363 32.4026C17.7428 32.4026 19.1231 32.3871 19.2106 32.3254C19.2754 32.2796 19.5826 31.5222 19.963 30.4704C21.0227 27.5397 21.5821 26.4137 21.9268 26.5173C22.2063 26.6012 23.0425 26.6763 24.4062 26.7397C26.1182 26.8192 26.4362 26.7853 26.9194 26.4717C27.5191 26.0825 27.75 25.4611 27.75 24.2356V23.4533L28.2187 22.9884C28.4765 22.7327 28.6875 22.4839 28.6875 22.4354C28.6875 22.387 28.573 22.1765 28.4331 21.9676L28.1788 21.5877L28.4258 21.3399C28.8803 20.8839 28.8822 20.9706 28.3933 19.8102C28.3693 19.7531 28.5034 19.7347 28.9464 19.7344C29.6518 19.734 29.935 19.6655 30.2163 19.4271C30.512 19.1766 30.6512 18.8003 30.5984 18.3951C30.5523 18.0415 30.3996 17.7188 29.8336 16.7789C29.0368 15.4558 28.9186 14.7464 29.2201 13.0992C29.6293 10.8644 29.4431 9.1943 28.598 7.51937C27.8615 6.05961 26.7446 4.86563 25.1562 3.84026C22.4953 2.12238 18.9607 1.28323 15.6562 1.58484ZM15.6875 2.36464C14.2517 2.51466 13.0729 2.8366 11.8418 3.41504C9.75183 4.39692 8.38265 5.89408 7.65496 7.99326C7.29121 9.04252 7.21902 9.56878 7.21958 11.1689C7.22008 12.7421 7.28252 13.2523 7.66233 14.7871C7.94252 15.9194 8.17465 16.6388 8.66071 17.8808C9.37258 19.7 9.52933 20.4254 9.52383 21.8762C9.5174 23.5784 9.21771 24.6087 7.79546 27.8181C7.05533 29.4881 6.48058 30.9348 6.3514 31.4528L6.3099 31.619L12.5061 31.6036L18.7022 31.5883L19.2485 30.0802C19.8572 28.3997 20.2881 27.3503 20.5736 26.8529C20.8865 26.3078 21.2238 25.9134 21.4761 25.7979C21.6835 25.7029 21.7596 25.6982 22.0908 25.7596C22.674 25.8679 23.5433 25.9386 24.8518 25.9844C25.9943 26.0243 26.0598 26.0204 26.3247 25.8966C26.5144 25.808 26.65 25.6861 26.7541 25.5107C26.8953 25.2727 26.9085 25.1779 26.9375 24.1852L26.9687 23.1159L27.3584 22.7367L27.748 22.3574L27.4992 21.9962C27.3623 21.7975 27.2503 21.5723 27.2501 21.4956C27.25 21.411 27.3726 21.2311 27.5625 21.0374C27.7343 20.862 27.875 20.699 27.875 20.6752C27.875 20.6514 27.7484 20.346 27.5937 19.9965C27.439 19.6469 27.3125 19.3353 27.3125 19.3038C27.3125 19.2724 27.3815 19.1801 27.4659 19.0987C27.6156 18.9541 27.6426 18.9506 28.5909 18.9506C29.496 18.9506 29.5715 18.9419 29.6943 18.8233C29.8848 18.6394 29.8122 18.3061 29.4528 17.714C28.9346 16.8606 28.5777 16.1569 28.4276 15.6931C28.2226 15.0597 28.2243 13.8463 28.4314 12.8881C28.6096 12.0632 28.6722 10.7225 28.5654 10.0172C28.4503 9.25794 28.2179 8.55077 27.8436 7.82098C26.4383 5.08159 23.07 3.02264 19.0625 2.45331C18.214 2.33279 16.4388 2.28616 15.6875 2.36464ZM15.9375 3.12235C14.1095 3.33861 12.834 3.70616 11.7073 4.34118C10.1448 5.22202 8.9784 6.5802 8.43408 8.15276C8.1444 8.9898 8.05271 9.58133 8.01808 10.8372C7.97977 12.2285 8.09283 13.1999 8.46883 14.7087C8.6929 15.6081 9.19283 17.1177 9.4589 17.6983C9.63108 18.0741 9.81721 18.1783 10.0966 18.0554C10.35 17.944 10.3407 17.7628 10.042 16.9872C9.48096 15.5305 9.03352 13.8297 8.87702 12.559C8.78865 11.8414 8.7869 10.3741 8.87371 9.78715C9.09821 8.26918 9.66496 7.10555 10.6562 6.12717C11.8035 4.99478 13.2855 4.31084 15.3125 3.97834C15.8862 3.88417 18.2495 3.88043 18.7812 3.97285C19.2884 4.06092 19.497 3.95928 19.499 3.62279C19.5004 3.39471 19.3318 3.28245 18.8742 3.20681C18.4561 3.13768 16.3258 3.07639 15.9375 3.12235ZM2.47227 17.8782C2.27552 18.1492 2.33521 18.2395 3.56871 19.5358C4.22527 20.2259 4.81902 20.838 4.88815 20.896C5.05477 21.0359 5.28333 21.0297 5.43746 20.8809C5.6909 20.6363 5.62433 20.5311 4.40002 19.2407C3.76065 18.5669 3.16846 17.9545 3.08402 17.8798C2.8839 17.7029 2.60002 17.7021 2.47227 17.8782ZM1.49996 23.1732C1.33277 23.3346 1.3424 23.5092 1.5284 23.6887L1.68177 23.8367H3.45746C5.15921 23.8367 5.23996 23.8316 5.39777 23.7117C5.59571 23.5615 5.6119 23.3416 5.43746 23.1732C5.31808 23.058 5.22915 23.0525 3.46871 23.0525C1.70827 23.0525 1.61933 23.058 1.49996 23.1732ZM3.66546 27.2447C2.30333 28.677 2.24002 28.7736 2.49996 29.0245C2.72002 29.2369 2.88877 29.1785 3.32802 28.738C4.36365 27.6993 5.50752 26.4527 5.54015 26.3271C5.59777 26.1057 5.41121 25.8877 5.16402 25.8877C4.97265 25.8877 4.85221 25.9968 3.66546 27.2447Z" fill="white"/>
</g>
</g>
</g>
</g>
<defs>
<clipPath id="clip0_1_674">
<rect width="32" height="32" fill="white" transform="translate(0 0.779785)"/>
</clipPath>
<clipPath id="clip1_1_674">
<rect width="32" height="32" fill="white" transform="translate(0 0.779785)"/>
</clipPath>
<clipPath id="clip2_1_674">
<rect width="32" height="32" fill="white" transform="translate(0 0.779785)"/>
</clipPath>
</defs>
</svg>
