<svg width="34" height="36" viewBox="0 0 34 36" fill="none" xmlns="http://www.w3.org/2000/svg">
<g clip-path="url(#clip0_1_186)">
<g clip-path="url(#clip1_1_186)">
<path fill-rule="evenodd" clip-rule="evenodd" d="M16.2695 1.57823C15.6814 1.70453 14.8533 2.12734 14.4003 2.53255C14.0555 2.84094 13.9869 2.87348 13.5512 2.9353C11.7514 3.19057 10.5124 4.29418 10.0467 6.057C9.74564 7.19666 10.0558 9.04501 10.7756 10.4005L11.0028 10.8284L10.8297 10.9565C10.7345 11.0269 10.5684 11.2457 10.4606 11.4428C10.2909 11.7531 10.2612 11.8858 10.2393 12.432C10.2185 12.951 10.2384 13.1277 10.3517 13.4281C10.5387 13.9242 10.823 14.2486 11.2566 14.4607C11.5786 14.6182 11.6278 14.6698 11.6888 14.9132C11.9815 16.0819 12.5228 17.0986 13.2646 17.8729C13.6272 18.2514 13.746 18.4211 13.746 18.5608C13.746 18.8376 13.5548 19.7103 13.4085 20.1015L13.2799 20.4453L11.7099 20.9199C10.8463 21.181 10.0846 21.4445 10.0172 21.5056C9.94971 21.5667 9.89446 21.6823 9.89446 21.7624C9.89446 21.8983 9.85482 21.911 9.31341 21.9496C6.62794 22.1411 4.44224 24.0107 3.77008 26.6912C3.63036 27.2482 3.62385 27.407 3.62153 30.3099C3.61914 33.2766 3.62212 33.3491 3.75421 33.4813C3.88934 33.6165 3.89665 33.6166 16.9999 33.6166C30.103 33.6166 30.1106 33.6165 30.2457 33.4813C30.3777 33.3491 30.3807 33.2765 30.3783 30.3099C30.376 27.407 30.3695 27.2482 30.2298 26.6912C29.7325 24.7081 28.4146 23.1544 26.5829 22.392C25.9835 22.1424 25.0292 21.9302 24.5006 21.929C24.1414 21.9281 24.13 21.9223 24.0496 21.7001C23.9511 21.4277 23.9313 21.4193 22.0804 20.8669C21.2426 20.6169 20.7211 20.4275 20.6671 20.3536C20.5404 20.1804 20.3245 19.4401 20.237 18.8791L20.1602 18.3868L20.4627 18.1155C21.208 17.4468 21.8743 16.3162 22.2003 15.1672C22.3569 14.6154 22.3569 14.6153 22.687 14.4624C23.0829 14.279 23.4625 13.8564 23.6038 13.4417C23.669 13.25 23.7067 12.9055 23.7063 12.5032C23.7058 11.9754 23.6791 11.8105 23.5488 11.5308C23.3942 11.1986 22.9665 10.7719 22.7882 10.7719C22.7272 10.7719 22.7125 10.7331 22.7441 10.6556C22.9224 10.2193 23.2527 9.15531 23.3524 8.69651C23.5189 7.92899 23.5178 6.26339 23.3502 5.65856C23.0945 4.73531 22.7218 4.06288 22.1233 3.44477C21.2591 2.55234 19.9549 1.87141 18.5322 1.56979C17.9808 1.45291 16.8329 1.45723 16.2695 1.57823ZM16.415 2.53913C15.7573 2.71138 15.3587 2.94161 14.8498 3.44311L14.421 3.86559H13.9978C12.5354 3.86559 11.3689 4.78538 10.9957 6.23257C10.8054 6.97068 10.8976 8.1041 11.2284 9.09435L11.3784 9.54332L11.465 9.03425C11.6199 8.12309 11.991 7.29122 12.5765 6.54296C13.0018 5.99936 13.7598 5.39453 14.0169 5.3936C14.1232 5.3932 14.3624 5.528 14.6478 5.74907C15.2374 6.20595 15.7227 6.47695 16.3816 6.71747C17.1515 6.99844 17.6407 7.07188 18.7929 7.07952C19.8079 7.08623 19.8285 7.08928 20.2732 7.29992C20.5212 7.41739 20.8576 7.62286 21.0207 7.75653C21.3488 8.02541 21.8378 8.71896 22.0193 9.17284L22.1367 9.46636L22.224 9.21422C22.5275 8.33765 22.6233 6.72777 22.4215 5.89848C22.0219 4.25732 20.6838 3.10763 18.5403 2.56389C17.7756 2.36992 17.0912 2.36195 16.415 2.53913ZM13.6054 6.81642C12.9136 7.52013 12.5048 8.43029 12.3464 9.61869C12.3033 9.94249 12.2857 10.4364 12.3073 10.7163C12.3417 11.1631 12.33 11.2462 12.2113 11.3969C12.1367 11.4919 12.0086 11.5687 11.925 11.5687C11.3992 11.5687 11.1877 11.8567 11.192 12.567C11.1962 13.2961 11.3689 13.5453 11.976 13.6981C12.3678 13.7967 12.47 13.9201 12.5543 14.3964C12.755 15.5301 13.2386 16.511 13.9433 17.2139C14.7948 18.0633 15.7184 18.4371 16.9667 18.4379C17.7896 18.4383 18.3079 18.3257 18.96 18.0047C20.193 17.3977 21.0983 16.0777 21.3858 14.4675C21.483 13.9236 21.5899 13.771 21.9102 13.7198C22.278 13.661 22.5704 13.4626 22.6817 13.1964C22.7951 12.9247 22.807 12.2716 22.7039 11.9757C22.6144 11.719 22.4605 11.63 22.0598 11.6029C21.659 11.5759 21.5472 11.4327 21.4898 10.8724C21.3592 9.59851 20.7686 8.58847 19.924 8.19528C19.587 8.03836 19.499 8.02727 18.6955 8.04002C17.0416 8.06638 15.6327 7.64577 14.3667 6.74769L13.9579 6.45782L13.6054 6.81642ZM14.6757 18.9687C14.6757 19.1882 14.4243 20.1343 14.2623 20.5247L14.0592 21.014L14.2794 22.497L14.4997 23.9801L14.8699 24.0327C15.3519 24.1014 18.5833 24.1011 19.0662 24.0324L19.4391 23.9794L19.543 23.3024C19.6002 22.93 19.6993 22.2649 19.7632 21.8243L19.8794 21.0233L19.695 20.5626C19.5935 20.3093 19.456 19.8528 19.3894 19.5483C19.3228 19.2438 19.2585 18.9853 19.2465 18.9738C19.2344 18.9623 18.9556 19.0461 18.6269 19.1602C18.0569 19.3581 17.9817 19.3676 16.9999 19.367C16.0784 19.3664 15.915 19.3485 15.4394 19.196C15.1472 19.1023 14.8559 19.0031 14.7919 18.9756C14.728 18.9481 14.6757 18.945 14.6757 18.9687ZM12.0859 21.8035C11.5198 21.9772 11.0489 22.1211 11.0396 22.1233C11.0303 22.1255 11.2918 22.6649 11.6207 23.3219C11.9496 23.979 12.2187 24.5908 12.2187 24.6816C12.2187 24.7877 12.0752 25.0132 11.8167 25.3137C11.5691 25.6013 11.4332 25.8125 11.463 25.8632C11.7281 26.3155 14.5106 30.8097 14.5564 30.8598C14.595 30.9019 14.605 30.8897 14.5838 30.8265C14.5655 30.7718 14.2479 28.6949 13.8781 26.2113C13.5083 23.7277 13.1853 21.6489 13.1604 21.5917C13.1213 21.5018 12.9751 21.5307 12.0859 21.8035ZM20.7593 21.6847C20.6437 22.3171 19.3919 30.731 19.4068 30.7757C19.425 30.8301 22.465 25.9505 22.4949 25.819C22.504 25.7791 22.3322 25.5431 22.1131 25.2944C21.894 25.0457 21.7148 24.784 21.7148 24.7127C21.7148 24.6415 21.9822 24.0291 22.309 23.3519C22.6901 22.5623 22.8748 22.1114 22.8237 22.0949C22.7799 22.0808 22.3855 21.9612 21.9472 21.8292C21.5089 21.6972 21.071 21.5634 20.974 21.5319C20.812 21.4793 20.7946 21.4917 20.7593 21.6847ZM9.24906 22.9057C8.9997 22.9368 8.63155 23.3188 8.3468 23.842C8.12287 24.2535 7.92292 25.0153 7.86176 25.6902C7.81608 26.194 7.81707 26.1985 7.96456 26.1599C8.20382 26.0974 8.88522 26.2356 9.25085 26.4209C9.68681 26.6418 10.2906 27.2195 10.5134 27.629C10.7596 28.0812 10.9113 28.78 10.8688 29.2653C10.8402 29.5911 10.8014 29.6909 10.6542 29.8174C10.4708 29.9753 10.3908 29.9785 9.74279 29.8544C9.30178 29.7698 9.25145 29.1828 9.66821 28.984C9.92341 28.8624 9.93802 28.7866 9.78987 28.3519C9.56382 27.6885 8.80819 27.1094 8.1679 27.1088C7.69821 27.1084 7.40768 27.2206 7.05334 27.5391C6.59028 27.9555 6.41557 28.3835 6.45787 28.9977C6.4756 29.2548 6.5272 29.544 6.57249 29.6402C6.64188 29.7875 6.68259 29.8075 6.83034 29.767C7.25667 29.6499 7.63373 30.0579 7.43172 30.4177C7.30156 30.6496 6.562 30.9376 6.31749 30.8517C5.99621 30.7387 5.57872 29.9099 5.4813 29.1919C5.36051 28.3013 5.84952 27.1943 6.60284 26.6533L6.88745 26.449L6.92524 25.6993C6.96541 24.9029 7.09232 24.3093 7.34585 23.732L7.50151 23.3778L7.18721 23.5602C6.04064 24.2257 5.21886 25.2638 4.77341 26.6098C4.624 27.0611 4.61888 27.156 4.59683 29.8803L4.57412 32.6859H9.56243C13.5356 32.6859 14.5405 32.6691 14.5003 32.6029C14.4726 32.5573 13.5296 31.0317 12.4046 29.2129C10.9224 26.8163 10.3593 25.8515 10.3593 25.7084C10.3593 25.5705 10.4435 25.4165 10.6389 25.1972C10.7927 25.0244 10.9781 24.815 11.0509 24.7317L11.1833 24.5802L10.7567 23.719L10.3302 22.8578L9.89652 22.8684C9.65799 22.8743 9.36666 22.8911 9.24906 22.9057ZM23.2056 23.7277L22.7697 24.5976L23.183 25.0626C23.4749 25.3911 23.5963 25.5808 23.5963 25.7086C23.5963 25.8655 22.2925 28.034 19.7108 32.1713L19.3896 32.6859H24.4077H29.4257L29.403 29.8803C29.381 27.1493 29.3762 27.0622 29.2255 26.6098C28.8644 25.5263 28.2843 24.6605 27.5042 24.0406C27.0473 23.6775 26.4647 23.3359 26.121 23.2293C25.9793 23.1855 25.9795 23.188 26.1477 23.6025C26.3896 24.1984 26.5478 24.8474 26.642 25.6299L26.7239 26.3101L26.9397 26.3813C27.0584 26.4205 27.3043 26.5863 27.4861 26.7497C28.4372 27.6049 28.2303 29.1192 27.084 29.692C26.1837 30.1419 25.1474 29.8291 24.6699 28.9631C24.4947 28.6456 24.4708 28.5377 24.4718 28.0707C24.4727 27.6555 24.5041 27.4814 24.6156 27.2738C24.8025 26.9258 25.2041 26.543 25.521 26.411L25.7745 26.3054L25.7297 25.9264C25.5809 24.6654 25.1895 23.5168 24.7464 23.0404C24.5922 22.8746 24.5337 22.8578 24.1091 22.8578H23.6415L23.2056 23.7277ZM14.6757 25.0622C14.6757 25.0877 14.9297 26.7869 15.2402 28.8383C15.5506 30.8896 15.8046 32.5945 15.8046 32.627C15.8046 32.6594 16.3242 32.6859 16.9594 32.6859H18.114L18.1529 32.4701C18.2278 32.0539 19.2577 25.184 19.2577 25.1005C19.2577 25.0337 18.7763 25.016 16.9667 25.016C15.7067 25.016 14.6757 25.0368 14.6757 25.0622ZM25.6646 27.4611C25.3759 27.7498 25.3111 28.0783 25.4765 28.4155C25.6265 28.7217 25.9769 28.9672 26.2636 28.9672C26.5482 28.9672 26.9003 28.7223 27.0476 28.4221C27.2101 28.0909 27.1411 27.7404 26.8576 27.4564C26.6648 27.2634 26.6022 27.2406 26.2636 27.2406C25.9235 27.2406 25.8628 27.2629 25.6646 27.4611Z" fill="#0482CB"/>
</g>
</g>
<defs>
<clipPath id="clip0_1_186">
<rect width="34" height="35" fill="white" transform="translate(0 0.474976)"/>
</clipPath>
<clipPath id="clip1_1_186">
<rect width="34" height="35" fill="white" transform="translate(0 0.474976)"/>
</clipPath>
</defs>
</svg>
