<svg width="33" height="33" viewBox="0 0 33 33" fill="none" xmlns="http://www.w3.org/2000/svg">
<g clip-path="url(#clip0_1_689)">
<g clip-path="url(#clip1_1_689)">
<g clip-path="url(#clip2_1_689)">
<mask id="mask0_1_689" style="mask-type:luminance" maskUnits="userSpaceOnUse" x="0" y="1" width="33" height="32">
<path d="M32.3301 1.14893H0.330078V32.0343H32.3301V1.14893Z" fill="white"/>
</mask>
<g mask="url(#mask0_1_689)">
<path fill-rule="evenodd" clip-rule="evenodd" d="M19.0178 1.58136C18.0346 1.71679 17.1224 2.17784 16.3611 2.92416C15.9299 3.3469 15.7572 3.58832 15.1062 4.67932C13.9962 6.53932 13.868 6.8904 13.8739 8.05566C13.8767 8.62602 13.9082 8.88191 14.0224 9.26213C14.1797 9.78609 14.2035 10.1935 14.0921 10.4526L14.0212 10.6176L13.8659 10.4677C13.6932 10.301 13.597 10.2853 13.3672 10.3864C13.0801 10.5127 13.0657 10.7237 13.3002 11.3734C13.4158 11.694 13.5406 11.9913 13.5774 12.0341C13.6142 12.077 13.8533 12.1855 14.1087 12.2754C14.5592 12.434 14.7664 12.5707 14.6811 12.6531C14.6582 12.6752 14.3395 12.5998 13.9729 12.4857L13.3063 12.2783L12.9274 11.8265C12.2273 10.9915 12.0794 10.9063 11.7618 11.1545C11.5802 11.2964 11.5654 11.6437 11.7333 11.8228C11.797 11.8909 11.8238 11.9468 11.7927 11.9471C11.7615 11.9474 10.1347 12.2704 8.17746 12.6647C4.35671 13.4345 4.45484 13.4049 4.45484 13.7885C4.45484 14.0203 4.64059 14.1994 4.87752 14.1962C4.97159 14.195 6.68646 13.8647 8.68833 13.4623C10.6902 13.0599 12.3614 12.7307 12.4019 12.7307C12.4425 12.7307 12.5487 12.8011 12.6378 12.8872C12.754 12.9994 13.0979 13.1358 13.8536 13.3697C14.4332 13.5491 14.963 13.6959 15.031 13.6959C15.2358 13.6959 15.5019 13.3621 15.5859 12.9999C15.7192 12.425 15.4622 11.8965 14.9279 11.6469L14.6476 11.5159L14.7598 11.2335C14.8215 11.0782 15.0516 10.4407 15.2712 9.81686C15.6492 8.74311 15.6655 8.67392 15.5764 8.52069C15.439 8.28453 15.1805 8.21329 14.9414 8.34576L14.7505 8.4515L14.7812 7.86148C14.8235 7.04845 14.9888 6.63337 15.8394 5.2051C16.449 4.18135 16.62 3.94404 17.0567 3.51581C17.4757 3.10507 17.6567 2.97652 18.088 2.78324C18.6729 2.52114 19.1105 2.41545 19.6111 2.41545C20.4775 2.41545 21.2215 2.72196 21.8669 3.34491C22.5664 4.01999 22.859 4.74296 22.8477 5.76737C22.8386 6.5868 22.6438 7.07385 21.7091 8.61329C20.6687 10.3269 20.3495 10.7077 19.7508 10.9491L19.5223 11.0413L19.5354 10.7346C19.5465 10.4764 19.5253 10.4096 19.401 10.3125C19.0608 10.0464 18.6866 10.2704 18.6135 10.7838C18.5409 11.2927 18.7612 11.7864 19.1465 11.9787C19.2465 12.0286 20.32 12.2326 21.5322 12.432C23.8851 12.8189 24.1799 12.9022 24.715 13.3314C24.9982 13.5585 30.7414 20.7995 30.8652 21.0856C31.0757 21.5718 30.9204 22.2388 30.511 22.6072C30.3942 22.7123 28.7517 23.8473 26.8611 25.1293C24.9705 26.4113 23.4032 27.4949 23.3782 27.5374C23.3533 27.5798 23.3149 27.7742 23.2929 27.9694C23.2517 28.3345 22.9826 29.0179 22.8801 29.0179C22.8464 29.0179 22.8279 28.5529 22.8355 27.9017C22.8472 26.9143 22.8362 26.7721 22.74 26.6694C22.644 26.5671 22.5247 26.5511 21.7315 26.5339L20.8319 26.5145L20.631 26.3204C20.5204 26.2136 20.4442 26.1126 20.4614 26.0959C20.4787 26.0793 20.9636 26.047 21.5389 26.0243L22.5849 25.9829L25.223 23.996C26.674 22.9032 27.9385 21.9387 28.033 21.8527C28.1524 21.744 28.2049 21.6361 28.2049 21.4991C28.2049 21.3184 28.0341 21.146 26.1694 19.4443C25.0499 18.4226 24.0444 17.5375 23.935 17.4774C23.6894 17.3426 23.2635 17.3713 23.0259 17.5387C22.6912 17.7746 22.6755 17.8642 22.319 21.5982L21.9822 25.1271L20.8904 25.158C20.2899 25.175 19.7472 25.2126 19.6844 25.2416C19.3127 25.4133 19.4173 26.3295 19.8664 26.8359C20.2256 27.2409 20.5022 27.3498 21.2674 27.3873L21.9236 27.4194L21.94 29.4515L21.9565 31.4837L22.1204 31.6081C22.3273 31.7652 22.4576 31.765 22.6652 31.6074C22.8224 31.488 22.8299 31.4566 22.8299 30.9092V30.3359L23.2575 29.9333C23.7462 29.4732 24.0404 28.9604 24.154 28.3707L24.2264 27.9949L27.5438 25.7497C29.4572 24.4546 31.0095 23.3609 31.2118 23.1654C31.8296 22.5681 32.0388 21.7037 31.759 20.9039C31.6249 20.5204 31.3302 20.1264 28.592 16.6685C25.9413 13.3212 25.5217 12.8189 25.1545 12.5528C24.524 12.0961 24.128 11.9707 22.4603 11.6989C21.6495 11.5668 20.9402 11.4455 20.884 11.4293C20.8047 11.4065 20.8582 11.3232 21.1223 11.0579C21.7048 10.4727 23.2223 7.97966 23.5244 7.11143C24.4151 4.55125 22.7902 1.90518 20.1218 1.57051C19.6059 1.50584 19.5634 1.50626 19.0178 1.58136ZM9.68577 1.69827C9.41596 1.8498 9.43277 1.99886 9.8669 3.30082C10.0956 3.98693 10.3326 4.58974 10.3985 4.65332C10.5464 4.79611 10.6377 4.79604 11.1267 4.65248C11.3416 4.58944 11.5176 4.54214 11.5179 4.54739C11.5274 4.71533 11.9724 6.73803 12.018 6.82019C12.0999 6.96798 12.3593 7.03451 12.5719 6.96237C12.8795 6.85795 12.8807 6.69122 12.5831 5.23248C12.4329 4.49594 12.2824 3.83365 12.2488 3.76066C12.1482 3.54235 11.9076 3.50085 11.4836 3.62855C11.2787 3.69026 11.0808 3.74117 11.0437 3.74166C11.0067 3.74214 10.8298 3.30902 10.6507 2.77914C10.3169 1.79207 10.2136 1.6289 9.92527 1.63306C9.85559 1.63409 9.74784 1.6634 9.68577 1.69827ZM5.31777 5.35621C4.9974 5.71627 5.10377 5.85779 6.30009 6.66298C6.8724 7.04815 7.39709 7.39241 7.46609 7.42806C7.67959 7.53839 7.8829 7.43422 8.18377 7.06021L8.47277 6.70105L9.09233 7.25771C10.2585 8.30552 10.4124 8.39227 10.6953 8.16123C10.7664 8.1032 10.8438 7.97736 10.8674 7.88163C10.9067 7.72153 10.8629 7.66356 10.3206 7.15775C9.1609 6.07604 8.59021 5.61258 8.4179 5.61258C8.25021 5.61258 8.00777 5.8149 7.69971 6.21183L7.5389 6.41898L6.66877 5.83559C5.75409 5.22235 5.51296 5.13681 5.31777 5.35621ZM10.7377 9.63136L10.2306 10.1514L9.63958 10.2613C4.79652 11.1614 2.64321 11.6013 2.2824 11.7641C1.75215 12.0034 1.25252 12.4716 1.00071 12.9652C0.809896 13.3392 0.798584 13.3986 0.798584 14.0273C0.798584 14.6564 0.809834 14.7153 1.00115 15.0907C1.31696 15.7101 1.97352 16.2192 2.76734 16.4602C2.88765 16.4968 4.46221 16.7723 6.2664 17.0727C9.35071 17.5861 9.5599 17.6288 9.7664 17.7876C10.2223 18.1379 10.1766 17.7272 10.5499 24.8293C10.9138 31.7564 10.8866 31.4916 11.2435 31.5781C11.5313 31.6478 11.7322 31.453 11.7549 31.0822C11.7832 30.6184 11.157 18.6595 11.085 18.2919C10.9616 17.661 10.5956 17.1777 10.0303 16.8994C9.7504 16.7615 9.6849 16.7492 5.8699 16.1123C2.79046 15.5983 2.58209 15.543 2.1314 15.1206C1.80165 14.8115 1.68052 14.5187 1.67865 14.0259C1.67652 13.4625 1.90652 13.044 2.39802 12.7168C2.81427 12.4397 2.68227 12.47 7.07984 11.6424L10.6736 10.9661L11.1486 10.4911L11.6236 10.0162H12.4795C13.305 10.0162 13.341 10.0109 13.4889 9.86807C13.5733 9.78664 13.6424 9.6497 13.6424 9.56374C13.6424 9.47778 13.5733 9.34085 13.4889 9.25941C13.3383 9.11397 13.3167 9.11132 12.2901 9.11132H11.2447L10.7377 9.63136ZM23.554 18.4102C23.5147 18.5298 22.9492 24.5083 22.9749 24.5331C23.0044 24.5616 26.9788 21.5591 27.0025 21.4903C27.0129 21.4602 26.3525 20.8257 25.535 20.0802C23.6483 18.3597 23.5874 18.3083 23.554 18.4102ZM15.3788 23.8151C15.3264 23.8731 15.2342 24.0699 15.174 24.2524C15.1137 24.4349 15.0432 24.6067 15.0171 24.6343C14.991 24.6619 14.5191 24.5462 13.9684 24.3772C13.1671 24.1314 12.9353 24.0816 12.8085 24.1281C12.4985 24.2419 12.4158 24.6491 12.6644 24.8378C12.7452 24.8992 13.3822 25.123 14.0799 25.3352C15.5854 25.7931 15.5816 25.7935 15.8171 25.1573C15.896 24.9441 15.9672 24.7633 15.9753 24.7555C15.9834 24.7477 16.4499 24.9435 17.012 25.1905C18.0779 25.6591 18.3589 25.7215 18.5389 25.5295C18.6612 25.3991 18.6745 25.0997 18.5642 24.9626C18.4513 24.8223 15.8665 23.7095 15.6535 23.7095C15.5549 23.7095 15.4313 23.757 15.3788 23.8151ZM16.5534 27.3659C15.8342 27.5129 15.2052 27.6655 15.1558 27.7051C14.9842 27.8426 14.9707 28.0152 15.0969 28.4632C15.1676 28.714 15.1976 28.9257 15.1663 28.9523C15.1359 28.978 14.6785 29.1456 14.1499 29.3245C13.2747 29.6207 13.1803 29.6668 13.0955 29.8384C13.0157 29.9999 13.0146 30.0513 13.088 30.1966C13.2565 30.5305 13.3934 30.5175 14.8057 30.0332C16.338 29.5077 16.3462 29.5012 16.191 28.9348C16.1353 28.7317 16.0725 28.523 16.0513 28.471C16.019 28.3919 16.198 28.3399 17.1557 28.1502C18.3909 27.9054 18.5382 27.8376 18.5382 27.5139C18.5382 27.2519 18.3602 27.0864 18.0858 27.0931C17.9622 27.0961 17.2726 27.2189 16.5534 27.3659Z" fill="white"/>
</g>
</g>
</g>
</g>
<defs>
<clipPath id="clip0_1_689">
<rect width="32" height="32" fill="white" transform="translate(0.330078 0.779785)"/>
</clipPath>
<clipPath id="clip1_1_689">
<rect width="32" height="32" fill="white" transform="translate(0.330078 0.779785)"/>
</clipPath>
<clipPath id="clip2_1_689">
<rect width="32" height="32" fill="white" transform="translate(0.330078 0.779785)"/>
</clipPath>
</defs>
</svg>
