<svg width="34" height="35" viewBox="0 0 34 35" fill="none" xmlns="http://www.w3.org/2000/svg">
<g clip-path="url(#clip0_1_220)">
<g clip-path="url(#clip1_1_220)">
<g clip-path="url(#clip2_1_220)">
<mask id="mask0_1_220" style="mask-type:luminance" maskUnits="userSpaceOnUse" x="0" y="1" width="34" height="34">
<path d="M33.9393 1.3042H0.910767V34.3328H33.9393V1.3042Z" fill="white"/>
</mask>
<g mask="url(#mask0_1_220)">
<path fill-rule="evenodd" clip-rule="evenodd" d="M19.7175 1.37424C18.6927 1.51461 17.0915 1.94398 16.7443 2.1715C16.5489 2.29949 16.4972 2.55301 16.6185 2.78763C16.774 3.08824 16.9612 3.09443 17.7987 2.82659C21.0526 1.78587 24.5684 2.28917 27.4339 4.20592C29.5443 5.61737 31.0869 7.62857 31.8708 9.99025C32.3359 11.3912 32.4931 12.512 32.4351 14.0126C32.305 17.3816 30.7451 20.3952 28.0132 22.5564C27.1944 23.204 27.0862 23.7698 27.6119 24.6548C28.002 25.3114 28.7381 26.2663 29.3911 26.9628C29.6988 27.2909 29.9255 27.5594 29.8951 27.5594C29.7596 27.5594 28.2339 27.1627 27.6494 26.9755C27.2948 26.8619 26.6998 26.64 26.3273 26.4823C25.5519 26.1541 24.3275 25.4947 24.3275 25.4054C24.3275 25.3723 24.3969 25.2265 24.4819 25.0815C24.5667 24.9365 24.7703 24.5036 24.9342 24.1195C26.3248 20.8615 26.2348 17.1713 24.6866 13.9824C23.0826 10.6784 19.9074 8.15045 16.3929 7.3795C15.098 7.09547 13.7767 6.99729 12.6885 7.10424C12.3008 7.1423 11.9734 7.16321 11.9609 7.15069C11.9483 7.13811 12.0753 6.94246 12.2431 6.71583C12.7168 6.07617 13.9742 4.86436 14.6455 4.40073C14.9793 4.17012 15.3058 3.93059 15.3711 3.86854C15.5239 3.72313 15.5229 3.42388 15.3691 3.23383C15.1573 2.97232 14.8853 3.03141 14.2294 3.48135C12.9849 4.33507 11.8388 5.50843 10.9443 6.84453L10.5392 7.44982L9.78326 7.69792C5.64185 9.05719 2.53716 12.5486 1.64842 16.8462C1.26111 18.719 1.33517 20.8408 1.85072 22.6405C2.57322 25.1626 4.07686 27.4046 6.11811 29.0031C6.33887 29.176 6.53684 29.372 6.558 29.4387C6.63921 29.6946 5.66397 31.0674 4.68518 32.0751C3.87191 32.9123 3.8136 32.9985 3.81392 33.3635C3.81437 33.9003 4.23181 34.3327 4.74904 34.332C5.04288 34.3316 6.14779 34.0913 7.00685 33.8409C8.38902 33.4379 10.0527 32.6895 11.136 31.9835C11.9444 31.4565 11.8331 31.4846 12.8155 31.5592C14.3651 31.6768 15.9264 31.4812 17.492 30.9732C18.4974 30.647 18.9165 30.428 19.002 30.1838C19.1393 29.7924 18.7208 29.4498 18.3097 29.617C17.5366 29.9315 16.5872 30.2309 15.8872 30.381C15.1159 30.5466 14.9736 30.5564 13.3287 30.5593C11.3749 30.5628 11.5743 30.521 10.6651 31.1168C10.0181 31.5408 8.53346 32.2692 7.71645 32.5635C7.07859 32.7934 5.20261 33.3008 4.99069 33.3008C4.92025 33.3008 5.05578 33.1222 5.37032 32.8008C6.1803 31.9731 7.03595 30.8414 7.41681 30.094C7.72832 29.4826 7.53415 28.8435 6.88771 28.3527C6.30893 27.9133 5.28054 26.8959 4.81194 26.299C2.92853 23.9001 2.09631 20.8741 2.49123 17.8613C2.97176 14.1957 5.22931 10.9983 8.53637 9.29961C9.66327 8.72077 10.7913 8.36675 12.1353 8.17012C13.1292 8.02472 14.9078 8.0731 15.8446 8.27108C20.3869 9.23084 23.7322 12.5845 24.7251 17.1735C24.8536 17.7675 24.8717 18.0334 24.8717 19.3345C24.8717 20.6356 24.8537 20.9007 24.7257 21.4879C24.334 23.2844 23.6291 24.8319 22.5633 26.2357C22.0996 26.8462 21.1559 27.7975 20.6151 28.1996C20.1117 28.5738 20.0054 28.6983 20.0054 28.9141C20.0054 29.186 20.205 29.3915 20.4691 29.3915C20.635 29.3915 20.7963 29.312 21.1063 29.0777C21.6665 28.6541 23.0656 27.2414 23.4525 26.7087L23.7658 26.2774L24.095 26.47C25.6432 27.3756 27.7808 28.1682 29.5657 28.4983C30.1718 28.6104 30.1998 28.6103 30.4565 28.4945C30.777 28.35 30.9734 28.0912 31.0187 27.7539C31.0753 27.3316 30.989 27.1759 30.305 26.4676C29.9426 26.0925 29.5258 25.6389 29.3785 25.4597C28.9777 24.9721 28.2626 23.8723 28.2626 23.7437C28.2626 23.6816 28.398 23.5205 28.5635 23.3857C30.2691 21.9964 31.2738 20.7851 32.1374 19.0766C34.6253 14.155 33.4888 8.09413 29.3947 4.45022C27.6511 2.89845 25.6007 1.90682 23.1986 1.45365C22.5765 1.33631 20.3631 1.2858 19.7175 1.37424ZM8.81311 13.91C8.44734 14.0006 8.01087 14.2124 7.69607 14.452C7.17135 14.8517 6.71657 15.7866 6.71657 16.466C6.71657 16.7253 6.74489 16.7994 6.88655 16.9107C6.98002 16.9843 7.12645 17.0445 7.212 17.0445C7.42655 17.0445 7.6842 16.7709 7.6842 16.543C7.6842 16.2089 7.87096 15.7209 8.10221 15.4508C8.43611 15.0606 8.89858 14.8512 9.42594 14.8512C10.3519 14.8512 11.032 15.4893 11.1477 16.4666C11.2111 17.0011 11.6434 17.2198 11.9769 16.8861C12.1658 16.6974 12.1825 16.4141 12.0379 15.8589C11.7821 14.8767 10.9078 14.0748 9.88487 13.8838C9.45103 13.8029 9.22254 13.8085 8.81311 13.91ZM17.3719 13.888C16.3718 14.0848 15.533 14.8934 15.2661 15.9178C15.1236 16.465 15.138 16.6986 15.3256 16.8861C15.6908 17.2514 16.1058 16.9968 16.197 16.3515C16.2642 15.8759 16.3887 15.6274 16.7212 15.3047C17.1979 14.8421 18.0011 14.7151 18.6221 15.0043C19.1813 15.2647 19.6184 15.9254 19.6184 16.5106C19.6184 16.9725 20.1493 17.2107 20.4546 16.8858C20.5889 16.7429 20.6005 16.6824 20.5717 16.2794C20.4609 14.7316 18.9235 13.5827 17.3719 13.888ZM6.65986 20.9904C6.26346 21.1867 6.00697 21.6032 6.00697 22.0507C6.00697 22.3257 6.06619 22.5053 6.33113 23.0346C7.72568 25.8202 10.4688 27.5064 13.619 27.5144C16.8255 27.5227 19.5332 25.8833 20.9496 23.0761C21.2878 22.4058 21.3062 22.3445 21.2829 21.971C21.253 21.4926 21.0331 21.159 20.6258 20.9739C20.3718 20.8586 20.0644 20.8533 13.6513 20.852L6.94235 20.8506L6.65986 20.9904ZM7.07259 21.906C6.95596 21.9913 6.95667 22.0044 7.09711 22.3504C7.30586 22.8647 7.91779 23.7826 8.3847 24.2817C9.72585 25.7155 11.6297 26.5278 13.6465 26.5271C16.404 26.5259 18.8027 25.0849 20.0555 22.6768C20.3615 22.0886 20.3817 21.9805 20.2032 21.8849C20.1196 21.8401 17.9535 21.8182 13.6356 21.8182C8.29974 21.8182 7.17213 21.8332 7.07259 21.906Z" fill="#0482CB"/>
</g>
</g>
</g>
</g>
<defs>
<clipPath id="clip0_1_220">
<rect width="34" height="34" fill="white" transform="translate(0 0.974976)"/>
</clipPath>
<clipPath id="clip1_1_220">
<rect width="34" height="34" fill="white" transform="translate(0 0.974976)"/>
</clipPath>
<clipPath id="clip2_1_220">
<rect width="34" height="34" fill="white" transform="translate(0 0.974976)"/>
</clipPath>
</defs>
</svg>
