<svg width="18" height="18" viewBox="0 0 18 18" fill="none" xmlns="http://www.w3.org/2000/svg">
<path d="M17.7188 9.10986C17.7188 13.9263 13.7812 17.8286 9 17.8286C4.18359 17.8286 0.28125 13.9263 0.28125 9.10986C0.28125 4.32861 4.18359 0.391113 9 0.391113C13.7812 0.391113 17.7188 4.32861 17.7188 9.10986ZM7.98047 13.7505L14.4492 7.28174C14.6602 7.0708 14.6602 6.68408 14.4492 6.47314L13.6406 5.69971C13.4297 5.45361 13.0781 5.45361 12.8672 5.69971L7.59375 10.9731L5.09766 8.51221C4.88672 8.26611 4.53516 8.26611 4.32422 8.51221L3.51562 9.28564C3.30469 9.49658 3.30469 9.8833 3.51562 10.0942L7.17188 13.7505C7.38281 13.9614 7.76953 13.9614 7.98047 13.7505Z" fill="#00466E"/>
</svg>
