<svg width="33" height="33" viewBox="0 0 33 33" fill="none" xmlns="http://www.w3.org/2000/svg">
<g clip-path="url(#clip0_1_749)">
<g clip-path="url(#clip1_1_749)">
<g clip-path="url(#clip2_1_749)">
<mask id="mask0_1_749" style="mask-type:luminance" maskUnits="userSpaceOnUse" x="0" y="1" width="33" height="32">
<path d="M32.6599 1.67627H0.659912V32.5617H32.6599V1.67627Z" fill="white"/>
</mask>
<g mask="url(#mask0_1_749)">
<path fill-rule="evenodd" clip-rule="evenodd" d="M14.4081 1.74021C13.6655 1.84577 13.1042 2.11886 12.8242 2.5106C12.3529 3.17011 12.0988 4.04992 12.0545 5.17513C12.0182 6.09801 12.1024 6.62149 12.3852 7.22967C12.6723 7.84726 13.5775 8.57355 14.5486 8.96553C14.8777 9.09842 15.0368 9.12418 15.5348 9.12514C16.2155 9.12647 16.5054 9.0241 16.992 8.61071C17.1523 8.4745 17.337 8.37225 17.4227 8.37225C17.5052 8.37225 17.8102 8.48325 18.1006 8.61885C18.9587 9.0197 19.4843 9.1661 20.1179 9.18082C20.6465 9.19307 20.6793 9.20169 20.7592 9.34882C20.9698 9.73664 21.0641 10.5958 21.1919 13.2886C21.3127 15.8327 21.4107 16.6677 21.7674 18.1892C21.799 18.3236 21.7972 18.3235 21.4013 18.1511C20.8007 17.8895 19.704 17.566 19.0035 17.4438C18.0866 17.2838 16.47 17.2967 15.622 17.4707C14.1313 17.7768 12.704 18.4052 11.571 19.2543L11.214 19.5219L10.765 19.1954C10.1817 18.7713 8.96549 18.186 8.25356 17.9867C7.82106 17.8657 7.49899 17.8221 6.86012 17.798C6.05643 17.7678 6.02412 17.7713 5.87574 17.9058C5.67512 18.0878 5.67512 18.3458 5.87574 18.5394C6.01762 18.6764 6.075 18.6876 6.64137 18.6879C7.72387 18.6887 8.75962 19.0165 9.86712 19.709C10.2 19.9171 10.4723 20.0935 10.4723 20.1011C10.4723 20.1086 10.1629 20.3524 9.78474 20.6426C9.34556 20.9798 9.08306 21.2248 9.05806 21.3209C8.97649 21.6346 9.28887 21.943 9.60831 21.8641C9.68818 21.8444 10.3658 21.3529 11.1141 20.7719C13.1247 19.2109 14.0556 18.7277 15.7848 18.3478C16.5075 18.189 18.2448 18.2038 19.056 18.3757C20.2472 18.6282 21.3538 19.0522 22.2832 19.6124C22.796 19.9215 22.8763 19.94 23.0873 19.7974C23.372 19.6049 23.3745 19.4414 23.1005 18.9277C22.5356 17.8687 22.2945 16.5755 22.1615 13.8918C21.9918 10.465 21.916 9.7408 21.6573 9.07333C21.4362 8.50303 20.9418 8.18778 20.3937 8.26753C19.9735 8.32864 19.3964 8.1946 18.6612 7.86518C18.2651 7.68765 17.7723 7.50879 17.566 7.46771C17.3598 7.42657 17.0537 7.32601 16.8858 7.24415C16.2822 6.94977 15.5973 6.18614 15.5973 5.80755C15.5973 5.60179 15.7564 5.41642 15.933 5.41642C16.1821 5.41642 17.0553 5.62188 17.7443 5.8426C18.5722 6.1079 18.7808 6.13022 18.9313 5.96964C19.0727 5.81896 19.0649 5.46142 18.9176 5.33275C18.7498 5.18623 17.4329 4.77078 16.6607 4.6207C15.918 4.4764 15.5072 4.51405 15.1507 4.75914C14.6849 5.07921 14.522 5.91089 14.8144 6.47533C15.0267 6.88511 15.498 7.4183 15.9098 7.71467C16.0988 7.8507 16.2637 7.9714 16.2762 7.98293C16.2887 7.99439 16.2043 8.05948 16.0887 8.12746C15.6542 8.38317 14.9026 8.23128 14.1491 7.73542C13.1815 7.09877 13.0022 6.72555 13.0058 5.3561C13.0078 4.63674 13.033 4.39738 13.1479 4.0083C13.5098 2.78259 13.8035 2.60892 15.5035 2.61489C17.4835 2.62189 19.5268 3.10991 20.662 3.84699C21.1434 4.15959 22.552 5.50709 23.2799 6.35143C23.566 6.6832 24.1755 7.44328 24.6343 8.04048C25.6895 9.41349 25.7862 9.51839 25.9975 9.51839C26.2072 9.51839 26.4723 9.27167 26.4723 9.07652C26.4723 8.7202 24.1688 5.85913 22.7551 4.4597C21.7895 3.50382 21.144 3.01653 20.3765 2.66418C18.8168 1.9482 16.0059 1.51303 14.4081 1.74021ZM26.7507 10.2697C26.6663 10.3512 26.5973 10.4848 26.5973 10.5668C26.5973 10.6505 26.8521 11.107 27.1797 11.61C30.1912 16.2339 31.9885 20.4197 31.6737 22.0757C31.3601 23.7247 29.1649 25.864 25.5973 27.9974C24.2682 28.7921 24.3473 28.7289 24.3473 28.9962C24.3473 29.2701 24.5152 29.4451 24.7778 29.4451C25.0596 29.4451 27.0393 28.2487 28.441 27.2313C30.3122 25.8731 31.7205 24.3924 32.286 23.1888C32.587 22.5478 32.6792 22.0694 32.636 21.3719C32.5062 19.2737 30.8124 15.5282 28.073 11.2815C27.7047 10.7104 27.3503 10.2158 27.2857 10.1824C27.0933 10.0831 26.9137 10.1123 26.7507 10.2697ZM3.75356 18.5163C2.36037 19.3134 1.41894 20.6502 0.946437 22.502C0.118312 25.7475 1.18381 29.4539 3.37968 30.9663C4.1875 31.5226 5.25981 31.872 6.97231 32.1366C10.4342 32.6717 16.2878 32.7011 18.7437 32.1958C19.0476 32.1334 19.6242 31.9564 20.0249 31.8027C20.9715 31.4397 23.2721 30.3624 23.4552 30.1964C23.6443 30.0249 23.6396 29.762 23.4438 29.5731C23.3595 29.4917 23.2465 29.425 23.1927 29.425C23.1388 29.425 22.5821 29.6667 21.9555 29.962C19.3378 31.1956 18.7845 31.3662 16.816 31.5466C15.6574 31.6528 11.1625 31.653 9.84731 31.5469C4.91412 31.1488 3.519 30.5618 2.43825 28.4297C1.81418 27.1984 1.55269 25.905 1.62112 24.388C1.73193 21.9304 2.71818 20.0734 4.3615 19.228C4.87806 18.9623 4.98668 18.696 4.69387 18.4133C4.47637 18.2034 4.25868 18.2272 3.75356 18.5163Z" fill="white"/>
</g>
</g>
</g>
</g>
<defs>
<clipPath id="clip0_1_749">
<rect width="32" height="32" fill="white" transform="translate(0.659912 0.779785)"/>
</clipPath>
<clipPath id="clip1_1_749">
<rect width="32" height="32" fill="white" transform="translate(0.659912 0.779785)"/>
</clipPath>
<clipPath id="clip2_1_749">
<rect width="32" height="32" fill="white" transform="translate(0.659912 0.779785)"/>
</clipPath>
</defs>
</svg>
