<svg width="34" height="36" viewBox="0 0 34 36" fill="none" xmlns="http://www.w3.org/2000/svg">
<g clip-path="url(#clip0_1_206)">
<g clip-path="url(#clip1_1_206)">
<mask id="mask0_1_206" style="mask-type:luminance" maskUnits="userSpaceOnUse" x="0" y="0" width="34" height="35">
<path d="M34 0.545288H0V34.5453H34V0.545288Z" fill="white"/>
</mask>
<g mask="url(#mask0_1_206)">
<path fill-rule="evenodd" clip-rule="evenodd" d="M19.9514 1.20121C19.0731 1.45269 18.2502 2.07339 17.7321 2.87518C17.0401 3.94578 16.9486 5.43249 17.5035 6.59028C17.6283 6.85079 17.7305 7.07425 17.7305 7.08687C17.7305 7.09948 17.5587 7.20799 17.3486 7.32805C16.5607 7.77855 15.9888 8.48525 15.7194 9.34136C15.579 9.78761 15.5723 9.91723 15.5723 12.1759C15.5723 14.4102 15.5794 14.5506 15.6988 14.6827C15.8465 14.8462 16.1809 14.8689 16.3731 14.7285C16.4955 14.6391 16.5036 14.5123 16.5352 12.1885L16.5684 9.74258L16.7592 9.3294C16.9823 8.8463 17.4759 8.34599 17.9827 8.0892C18.403 7.87624 18.4288 7.8761 18.7037 8.08582C19.8195 8.93694 21.4049 9.07965 22.7564 8.45058L23.1671 8.25947L23.4537 8.44454C24.0684 8.84158 24.4445 9.42702 24.566 10.1763C24.6044 10.4126 24.6359 11.3857 24.6362 12.3388C24.6367 13.9089 24.6477 14.0816 24.7537 14.1775C24.8181 14.2358 26.1255 14.63 27.659 15.0535C29.1925 15.4771 30.5844 15.8682 30.752 15.9226C31.487 16.1613 31.7979 16.9582 31.4068 17.6013C31.2952 17.7847 30.9261 18.0756 30.8039 18.0763C30.7809 18.0765 30.7494 17.9048 30.7339 17.6948C30.6843 17.0199 30.2931 16.3808 29.6836 15.9782C29.1304 15.6128 29.2915 15.6196 21.1696 15.6196C17.0501 15.6196 13.6797 15.6042 13.6797 15.5854C13.6797 15.5666 13.767 15.3947 13.8737 15.2035C14.2296 14.566 14.3766 13.9503 14.3768 13.0961C14.377 12.4309 14.3519 12.256 14.1826 11.7394C13.8217 10.6383 13.0371 9.7093 12.0288 9.18929C11.2456 8.7854 10.8428 8.68765 9.96095 8.68765C9.1239 8.68765 8.69803 8.78228 8.009 9.12115C5.59587 10.308 4.78099 13.3305 6.26949 15.5731C6.40967 15.7843 6.51319 15.9679 6.49951 15.9811C6.48583 15.9942 6.08613 16.1932 5.61133 16.4231C4.90762 16.7639 4.67288 16.9159 4.34118 17.2453C3.66616 17.9158 3.64225 17.9859 2.42516 22.8526C1.44161 26.7854 1.32812 27.2968 1.32812 27.7973C1.32812 28.5071 1.50365 29.0925 1.88276 29.6472C2.42722 30.444 2.57258 30.5253 6.43005 32.1923C8.35377 33.0236 10.0771 33.7457 10.2598 33.7968C10.6669 33.9108 11.2562 33.865 11.6556 33.6884C12.0488 33.5144 12.5268 33.0584 12.7384 32.6554C12.8922 32.3623 12.9142 32.2424 12.915 31.6899C12.9161 30.96 12.7778 30.5888 12.3423 30.1533C12.009 29.8199 11.8838 29.7611 8.83204 28.5032C7.38937 27.9085 6.14173 27.361 6.05958 27.2865C5.96555 27.2013 5.91016 27.0744 5.91016 26.9441C5.91016 26.8302 6.20899 25.7623 6.57423 24.5709C6.93946 23.3796 7.23829 22.3147 7.23829 22.2045C7.23829 21.9879 6.98428 21.7289 6.77184 21.7289C6.46046 21.7289 6.37773 21.9158 5.66825 24.2216C5.28655 25.4621 4.9567 26.6035 4.93525 26.7583C4.85197 27.3593 5.19324 27.976 5.76746 28.2625C5.93725 28.3472 7.25654 28.903 8.69922 29.4977C10.1419 30.0923 11.4194 30.6511 11.5382 30.7393C11.8432 30.9661 11.9791 31.2594 11.9818 31.6964C11.9847 32.1562 11.7516 32.5503 11.3581 32.751C10.8268 33.0221 10.7883 33.0101 7.09179 31.4195C5.21834 30.6134 3.56349 29.8829 3.41435 29.7962C2.80269 29.4407 2.3492 28.7052 2.28286 27.961C2.24839 27.5738 2.3326 27.1907 3.31674 23.2563C3.90602 20.9005 4.43713 18.8426 4.4971 18.6831C4.557 18.5236 4.75476 18.2303 4.93658 18.0314C5.2212 17.72 5.40973 17.6009 6.29167 17.1754L7.31612 16.6811L7.50823 16.8179C7.83814 17.0529 8.51142 17.3261 9.05861 17.4472C10.1873 17.6969 11.607 17.4159 12.4647 16.773L12.6775 16.6136L20.7323 16.6147L28.7871 16.6159L29.0859 16.7691C29.4217 16.9413 29.6485 17.235 29.7571 17.6382C29.9134 18.2185 29.4577 18.9632 28.8416 19.1343C28.6816 19.1787 27.5681 19.2049 25.8257 19.2051C23.1422 19.2055 23.0601 19.2093 22.9426 19.3392C22.7875 19.5106 22.7875 19.8301 22.9426 20.0015C23.0604 20.1317 23.1416 20.1352 26.0058 20.1352C28.8593 20.1352 28.9598 20.1309 29.332 19.9915C29.606 19.889 29.8267 19.7371 30.1035 19.4603C30.3967 19.167 30.5377 19.0727 30.6825 19.0727C31.0498 19.0727 31.6013 18.8088 31.9382 18.4718C32.8917 17.5184 32.6788 15.8595 31.5173 15.1919C31.2863 15.0592 30.0154 14.6902 26.1807 13.6429L25.5664 13.4752L25.5654 11.8081C25.5643 9.94253 25.5111 9.56826 25.1497 8.88548C24.9416 8.49229 24.4379 7.91635 24.1097 7.69621L23.9478 7.58764L24.1507 7.30382C24.6887 6.5511 24.9232 5.82495 24.9179 4.92813C24.9075 3.14738 23.7189 1.61094 22.0163 1.17737C21.4851 1.0421 20.4659 1.05385 19.9514 1.20121ZM20.3535 2.09996C19.5246 2.30568 18.7796 2.90526 18.4071 3.66641C17.5402 5.43807 18.642 7.53418 20.605 7.84775C22.0457 8.07791 23.4984 7.11967 23.8696 5.69446C24.1322 4.68615 23.871 3.70526 23.1342 2.93282C22.395 2.15793 21.3642 1.84914 20.3535 2.09996ZM9.07714 9.74265C7.95394 10.0514 6.9783 10.9892 6.63964 12.0856C6.47514 12.6183 6.4632 13.5177 6.61374 14.0303C7.04797 15.5085 8.39071 16.5511 9.87947 16.5661C10.5333 16.5727 11.0063 16.4608 11.5774 16.1644C12.3924 15.7416 13.0401 14.9429 13.3081 14.0303C13.4587 13.5177 13.4467 12.6183 13.2822 12.0856C12.9437 10.9896 11.9482 10.0295 10.8551 9.74478C10.3859 9.62259 9.51768 9.62152 9.07714 9.74265ZM18.4803 11.2712C18.371 11.3172 18.2622 11.4054 18.2385 11.4672C18.2147 11.5291 18.1953 12.2306 18.1953 13.0262C18.1953 14.3891 18.2033 14.4829 18.333 14.6477C18.5076 14.8698 18.847 14.887 19.0317 14.683C19.1467 14.5561 19.16 14.4094 19.1783 13.0694C19.1973 11.6729 19.1912 11.5864 19.0636 11.4243C18.8934 11.2078 18.7319 11.1654 18.4803 11.2712ZM17.8078 18.4137C17.5557 18.5396 17.3069 18.7304 17.1584 18.9117L16.9176 19.2055H15.4695H14.0213L13.8825 19.382C13.744 19.558 13.7437 19.5727 13.7615 24.6008L13.7793 29.643L13.9361 29.77C14.1492 29.9426 14.3837 29.9294 14.5792 29.7339L14.7422 29.5709V24.853V20.1352H15.7277H16.7133L16.7935 20.4941C16.892 20.934 17.184 21.3887 17.5152 21.6179C17.9719 21.934 18.2637 21.9946 19.3301 21.9946C20.1597 21.9946 20.3726 21.9731 20.678 21.8588C22.2062 21.2871 22.3174 19.1805 20.8593 18.4257L20.4415 18.2094H19.329C18.2197 18.2094 18.2154 18.21 17.8078 18.4137ZM18.3708 19.2042C17.8218 19.3779 17.5593 20.086 17.8606 20.5802C18.0826 20.9442 18.2744 20.9985 19.3375 20.9982C20.1622 20.998 20.3151 20.9809 20.4997 20.8683C21.062 20.5255 21.0491 19.6679 20.476 19.2921C20.3269 19.1943 20.1338 19.1697 19.4269 19.1582C18.9504 19.1505 18.4751 19.1712 18.3708 19.2042Z" fill="#0482CB"/>
</g>
</g>
</g>
<defs>
<clipPath id="clip0_1_206">
<rect width="34" height="35" fill="white" transform="translate(0 0.474976)"/>
</clipPath>
<clipPath id="clip1_1_206">
<rect width="34" height="35" fill="white" transform="translate(0 0.474976)"/>
</clipPath>
</defs>
</svg>
